<?xml version="1.0" encoding="utf-8"?>
<!-- Generator: Adobe Illustrator 17.0.0, SVG Export Plug-In . SVG Version: 6.00 Build 0)  -->
<!DOCTYPE svg PUBLIC "-//W3C//DTD SVG 1.1//EN" "http://www.w3.org/Graphics/SVG/1.1/DTD/svg11.dtd">
<svg version="1.1" id="Capa_1" xmlns="http://www.w3.org/2000/svg" xmlns:xlink="http://www.w3.org/1999/xlink" x="0px" y="0px"
	 width="506.486px" height="300px" viewBox="2.752 88.779 506.486 300" enable-background="new 2.752 88.779 506.486 300"
	 xml:space="preserve">
<g>
	<g id="Layer_1_copy_9_">
		<path d="M361.508,199.822h-33.027v-59.734h33.027v10.122h-21.386v13.259h20.613v10.113h-20.613v16.127h21.386V199.822z
			 M380.899,199.822h-11.641v-59.734h17.277c13.43,0,21.143,6.454,21.143,17.637c0,9.151-4.845,15.147-13.61,16.936l18.806,25.161
			h-14.347l-16.118-24.002h-1.51L380.899,199.822L380.899,199.822z M380.899,167.587h3.389c7.443,0,11.399-3.227,11.399-9.232
			c0-5.807-3.937-8.845-11.201-8.845h-3.577L380.899,167.587L380.899,167.587z M297.405,201.351l25.809-61.254h-12.612
			l-16.145,40.119l-15.92-40.119h-12.729l25.35,61.254H297.405z M412.154,146.111h-1.259v-5.25h1.69
			c1.276,0,1.995,0.566,1.995,1.627c0,0.728-0.404,1.267-1.141,1.466l1.708,2.157h-1.528l-1.475-2.041v2.041H412.154z
			 M412.154,143.198h0.198c0.62,0,0.953-0.225,0.953-0.692c0-0.45-0.315-0.675-0.935-0.675h-0.216V143.198z M94.999,199.822h11.642
			v-59.734H94.999V199.822z M89.623,170.005c0,8.792-4.018,17.286-10.833,22.914c-5.744,4.755-12.271,6.913-21.296,6.913H40.477
			v-59.734h17.08C76.453,140.088,89.623,152.377,89.623,170.005z M77.631,169.906c0-5.727-2.427-11.281-6.463-14.869
			c-3.848-3.479-8.414-4.827-15.92-4.827h-3.129v39.5h3.129c7.515,0,12.271-1.447,15.92-4.746
			C75.213,181.376,77.631,175.65,77.631,169.906z M237.67,201.935c14.257,0,26.348-9.394,30.339-22.33
			c0.188-0.548,0.297-1.106,0.459-1.654c0.107-0.468,0.243-0.926,0.332-1.385c0.441-2.067,0.647-4.216,0.647-6.418
			c0-17.539-14.222-31.759-31.777-31.759c-13.152,0-24.461,8.001-29.27,19.408c-1.618,3.802-2.49,7.982-2.49,12.369
			C205.911,187.705,220.131,201.935,237.67,201.935z M187.491,201.153c5.025,0,9.322-0.971,14.607-3.479v-13.718
			c-4.656,4.665-8.783,6.553-14.059,6.553c-11.731,0-20.047-8.513-20.047-20.604c0-11.462,8.585-20.514,19.507-20.514
			c5.565,0,9.78,1.986,14.607,6.724v-13.7c-5.106-2.598-9.322-3.668-14.329-3.668c-17.646,0-31.796,13.888-31.796,31.256
			C155.974,187.543,169.755,201.153,187.491,201.153z M408.262,143.477c0-2.544,2.032-4.576,4.593-4.576
			c2.463,0,4.512,2.067,4.512,4.576c0,2.517-2.05,4.576-4.512,4.576C410.312,148.053,408.262,146.021,408.262,143.477z
			 M409.189,143.486c0,2.076,1.654,3.749,3.623,3.749c2.014,0,3.632-1.69,3.632-3.749c0-2.058-1.645-3.758-3.632-3.758
			C410.825,139.728,409.189,141.401,409.189,143.486z M471.512,339.168v-114.39c0,0-111.964,79.008-317.048,114.381h317.048V339.168
			z M135.136,163.002c-7.003-2.58-9.061-4.297-9.061-7.515c0-3.767,3.668-6.625,8.692-6.625c3.479,0,6.356,1.438,9.394,4.846
			l6.094-7.991c-5.025-4.378-11.012-6.616-17.556-6.616c-10.571,0-18.608,7.335-18.608,17.107c0,8.225,3.739,12.441,14.679,16.379
			c4.567,1.609,6.885,2.679,8.054,3.398c2.338,1.519,3.496,3.677,3.496,6.185c0,4.836-3.848,8.432-9.044,8.432
			c-5.546,0-10.041-2.786-12.711-7.973l-7.533,7.254c5.375,7.884,11.812,11.381,20.666,11.381c12.118,0,20.613-8.054,20.613-19.615
			C152.306,172.153,148.369,167.847,135.136,163.002z"/>
	</g>
</g>
</svg>
