<?xml version="1.0" encoding="utf-8"?>
<!-- Generator: Adobe Illustrator 17.0.0, SVG Export Plug-In . SVG Version: 6.00 Build 0)  -->
<!DOCTYPE svg PUBLIC "-//W3C//DTD SVG 1.1//EN" "http://www.w3.org/Graphics/SVG/1.1/DTD/svg11.dtd">
<svg version="1.1" id="Слой_1" xmlns="http://www.w3.org/2000/svg" xmlns:xlink="http://www.w3.org/1999/xlink" x="0px" y="0px"
	 width="50px" height="30px" viewBox="0 0 50 30" enable-background="new 0 0 50 30" xml:space="preserve">
<g>
	<g>
		<path fill="#2D73A6" d="M50,27.5c0,1.381-1.119,2.5-2.5,2.5h-45C1.119,30,0,28.881,0,27.5v-25C0,1.119,1.119,0,2.5,0h45
			C48.881,0,50,1.119,50,2.5V27.5z M49,2.5C49,1.672,48.328,1,47.5,1h-45C1.672,1,1,1.672,1,2.5v25C1,28.328,1.672,29,2.5,29h45
			c0.828,0,1.5-0.672,1.5-1.5V2.5z"/>
	</g>
	<g>
		<path fill-rule="evenodd" clip-rule="evenodd" fill="#2D73A6" d="M38.381,2.005H11.639v12.466l1.016-2.39h1.324l0.783,1.843
			v-1.843h1.877l0.633,1.604l0.668-1.604h1.867v0.001h2.85v-0.001h2.14l0.186,0.003l0.178,0.008l0.166,0.014l0.156,0.021
			l0.147,0.027l0.139,0.035l0.133,0.046l0.118,0.056l0.076,0.044l0.067,0.046l0.063,0.047l0.043,0.038v-0.384h1.519v0.488
			l0.022-0.025l0.081-0.074l0.085-0.067l0.092-0.061l0.095-0.054l0.1-0.047l0.103-0.039l0.107-0.034l0.109-0.027l0.113-0.021
			l0.117-0.017l0.121-0.012l0.124-0.006l0.124-0.003h1.404h0.07h1.254l0.89,2.095v-2.095h1.526l0.525,0.96v-0.96h1.489v3.849H34.85
			l-0.563-0.985v0.985h-0.743h-0.746h-0.96l-0.295-0.69h-0.592l-0.297,0.69h-1.502h-0.079l-0.076-0.001l-0.073-0.003l-0.068-0.004
			l-0.066-0.006l-0.063-0.006l-0.06-0.009l-0.066-0.01l-0.174-0.042l-0.172-0.061l-0.164-0.083l-0.148-0.102l-0.138-0.118
			l-0.018-0.021v0.465h-0.873h-0.646h-1.131l-0.113-0.337l-0.015-0.058l-0.014-0.059l-0.011-0.062l-0.012-0.063l-0.011-0.071
			l-0.01-0.075l-0.01-0.076l-0.007-0.054l-0.008-0.044l-0.009-0.041l-0.009-0.032l-0.008-0.026l-0.008-0.021l-0.006-0.013
			l-0.004-0.007l-0.002-0.005l-0.004-0.005l-0.003-0.005l-0.005-0.003l-0.006-0.005l-0.01-0.007l-0.014-0.008l-0.01-0.005
			l-0.018-0.008l-0.028-0.009l-0.038-0.01l-0.046-0.009l-0.056-0.007l-0.064-0.006l-0.072-0.003l-0.082-0.001h-0.162v1.133h-1.073
			h-0.536h-2.85h-0.083h-1.532v-0.566l-0.244,0.566h-1.385l-0.184-0.453v0.453h-0.765h-0.853h-0.854l-0.294-0.69H13.02l-0.296,0.69
			h-1.086v12.816h26.742v-7.806l-0.025,0.024l-0.101,0.082l-0.11,0.069l-0.117,0.055l-0.121,0.043l-0.12,0.026l-0.065,0.011
			l-0.063,0.007l-0.065,0.006l-0.068,0.004l-0.072,0.005l-0.074,0.002l-0.082,0.001l-0.084,0.001h-1.883V21.02l-0.033,0.027
			l-0.111,0.069l-0.117,0.055l-0.121,0.043l-0.12,0.026l-0.067,0.011l-0.062,0.007l-0.065,0.006l-0.068,0.004l-0.071,0.005
			l-0.076,0.002l-0.081,0.001l-0.084,0.001h-1.518h-0.365h-2.434h-0.67h-1.008l-0.105-0.351l-0.013-0.054l-0.013-0.058l-0.01-0.061
			l-0.01-0.064l-0.01-0.071l-0.01-0.074l-0.007-0.075l-0.007-0.056l-0.008-0.046l-0.008-0.041l-0.008-0.034l-0.008-0.028
			l-0.007-0.022l-0.006-0.016l-0.004-0.008l-0.003-0.004l-0.002-0.005l-0.004-0.005l-0.002-0.002L28.01,20.2l-0.007-0.005
			l-0.009-0.005l-0.005-0.003l-0.011-0.005l-0.02-0.007l-0.028-0.01l-0.036-0.006l-0.046-0.008l-0.053-0.005l-0.061-0.003
			l-0.073-0.001h-0.1v1.134h-1.532v-1.488L25.99,19.83l-0.057,0.056l-0.059,0.05l-0.055,0.041l-0.056,0.038l-0.058,0.034
			l-0.058,0.032l-0.06,0.028l-0.063,0.026l-0.063,0.021l-0.063,0.019l-0.063,0.016l-0.066,0.013l-0.068,0.011l-0.069,0.007
			l-0.071,0.007l-0.074,0.004l-0.078,0.002l-0.076,0.001h-0.703v1.042h-2.012l-0.58-0.745l-0.568,0.745h-3.879v-3.849h1.924h-0.001
			h2.028l0.506,0.694l0.548-0.694h2.553h0.115l0.109,0.004l0.103,0.005l0.098,0.006l0.092,0.01l0.087,0.013l0.083,0.015l0.086,0.021
			l0.118,0.043l0.112,0.05l0.105,0.063l0.101,0.072l0.093,0.081l0.077,0.081v-0.463h1.964l0.17,0.002l0.162,0.008l0.152,0.015
			l0.145,0.021l0.139,0.028l0.13,0.038l0.126,0.048l0.111,0.059l0.072,0.047l0.063,0.047l0.002,0.001v-0.313h3.41v0.284l0.08-0.062
			l0.11-0.067l0.115-0.053l0.119-0.039l0.122-0.029l0.125-0.02l0.05-0.005l0.046-0.002l0.048-0.003l0.054-0.002l0.053-0.001
			l0.057-0.002h0.063h0.065h1.865v0.276l0.07-0.054l0.109-0.067l0.116-0.053l0.118-0.039l0.124-0.029l0.123-0.02l0.051-0.005
			l0.045-0.002l0.05-0.003l0.052-0.002l0.054-0.001l0.057-0.002h0.063h0.064h1.641V2.005L38.381,2.005z M32.732,19.879l0.151-0.002
			l-0.11-0.062l-0.098-0.071l-0.06-0.055l-0.05-0.05l-0.046-0.054l-0.042-0.055l-0.039-0.056v0.357h0.293V19.879L32.732,19.879z
			 M35.805,19.855l0.001,0.023h0.038L35.805,19.855L35.805,19.855z M20.268,19.63l0.242-0.296l-0.242-0.302V19.63L20.268,19.63z
			 M29.99,13.48h-0.725l-0.082,0.002l-0.065,0.008l-0.053,0.01l-0.041,0.013l-0.031,0.013l-0.024,0.014l-0.017,0.013l-0.01,0.011
			l-0.002,0.002l-0.008,0.012l-0.01,0.026l-0.012,0.04L28.9,13.7l-0.01,0.072l-0.006,0.085l-0.002,0.098l0.002,0.135l0.011,0.115
			L28.91,14.3l0.019,0.074l0.02,0.053l0.017,0.034l0.011,0.015l0.009,0.009l0.013,0.006l0.021,0.009l0.033,0.011l0.042,0.009
			l0.054,0.006l0.062,0.005l0.077,0.002h0.256L29.99,13.48L29.99,13.48z"/>
		<path fill-rule="evenodd" clip-rule="evenodd" fill="#2D73A6" d="M17.51,14.172h0.693l-0.568,1.318h-0.811l-0.912-2.244v2.244
			h-0.75v-2.989h1.15l0.922,2.333L17.51,14.172L17.51,14.172z M18.602,14.172h0.75v1.318h-0.75V14.172L18.602,14.172z
			 M20.139,14.172h2.314v0.061h-1.608v0.682h1.901v0.576h-2.607V14.172L20.139,14.172z M23.08,14.172h2.586
			c-0.034,0.012-0.069,0.023-0.106,0.034c0.137,0.039,0.24,0.082,0.311,0.129c0.069,0.047,0.133,0.115,0.189,0.206
			c0.043,0.069,0.072,0.139,0.092,0.205c0.018,0.066,0.031,0.164,0.045,0.295c0.019,0.214,0.048,0.364,0.084,0.449h-0.835
			c-0.026-0.069-0.052-0.21-0.077-0.424c-0.021-0.175-0.059-0.31-0.112-0.401c-0.054-0.093-0.136-0.166-0.245-0.219
			c-0.135-0.063-0.332-0.093-0.589-0.092h-0.601v1.136H23.08V14.172L23.08,14.172z M26.703,14.172h0.65v1.318h-0.65V14.172
			L26.703,14.172z M27.737,14.172h0.726c0.025,0.314,0.111,0.528,0.254,0.643c0.123,0.096,0.315,0.144,0.574,0.144h0.549
			l0.334-0.787h0.69l-0.039,0.095h0.873l-0.039-0.095h0.688l0.561,1.318h-0.767l-0.296-0.691h-1.168l-0.298,0.691h-0.146h-0.62
			H29.16c-0.203,0-0.359-0.01-0.467-0.029c-0.377-0.072-0.645-0.277-0.803-0.615C27.803,14.658,27.752,14.433,27.737,14.172
			L27.737,14.172z M33.252,14.172h0.623v1.318h-0.623V14.172L33.252,14.172z M34.375,14.172h0.629l0.306,0.557v-0.557h0.624v1.318
			h-0.807L34.375,14.172L34.375,14.172z M35.934,14.172H35.31v-1.671h0.624V14.172L35.934,14.172z M35.004,14.172h-0.629l-0.5-0.874
			v0.874h-0.623v-1.671h0.838L35.004,14.172L35.004,14.172z M32.347,14.172h-0.688l-0.396-0.952l-0.398,0.952h-0.69l0.71-1.671
			h0.753L32.347,14.172L32.347,14.172z M28.463,14.172h-0.726c-0.003-0.055-0.005-0.11-0.005-0.168c0-0.402,0.081-0.728,0.241-0.981
			c0.115-0.182,0.27-0.314,0.464-0.396c0.193-0.083,0.445-0.125,0.754-0.125h1.041v0.532h-0.966c-0.292,0-0.507,0.076-0.644,0.227
			c-0.113,0.126-0.169,0.354-0.169,0.684C28.454,14.026,28.457,14.101,28.463,14.172L28.463,14.172z M27.353,14.172h-0.65v-1.671
			h0.65V14.172L27.353,14.172z M25.666,14.172H23.08v-1.671h1.707c0.49,0,0.833,0.053,1.027,0.159
			c0.131,0.072,0.233,0.166,0.307,0.283c0.071,0.119,0.108,0.248,0.108,0.391c0,0.284-0.085,0.503-0.253,0.657
			C25.894,14.066,25.79,14.124,25.666,14.172L25.666,14.172z M22.453,14.172h-2.314v-1.671h2.549v0.559h-1.843v0.604h1.608V14.172
			L22.453,14.172z M19.352,14.172h-0.75v-0.926l-0.399,0.926H17.51l0.693-1.671h1.149V14.172L19.352,14.172z M32.819,20.854v-0.532
			h1.32c0.212,0,0.353-0.021,0.423-0.066c0.104-0.063,0.154-0.156,0.154-0.282c0-0.145-0.061-0.251-0.178-0.318
			c-0.068-0.037-0.178-0.056-0.326-0.056h-0.535c-0.328,0-0.563-0.063-0.708-0.184c-0.091-0.078-0.161-0.176-0.212-0.293
			c-0.051-0.117-0.076-0.243-0.076-0.376c0-0.21,0.06-0.402,0.178-0.576c0.115-0.167,0.302-0.265,0.557-0.292
			c0.087-0.01,0.215-0.015,0.386-0.015h1.436v0.532h-1.295c-0.193,0.003-0.323,0.011-0.386,0.027
			c-0.129,0.033-0.195,0.135-0.195,0.304c0,0.143,0.055,0.239,0.164,0.29c0.072,0.033,0.194,0.05,0.364,0.05h0.464
			c0.236,0,0.414,0.022,0.531,0.064c0.205,0.071,0.346,0.197,0.422,0.377c0.063,0.145,0.094,0.299,0.094,0.464
			c0,0.182-0.041,0.344-0.121,0.489c-0.112,0.204-0.283,0.326-0.51,0.365c-0.111,0.02-0.276,0.029-0.497,0.029H32.819L32.819,20.854
			z M29.707,17.864h2.551v0.56h-1.844v0.604h1.609v0.568h-1.609v0.682h1.902v0.577h-2.609V17.864L29.707,17.864z M17.498,17.864
			h2.364l-0.001-0.001h0.943l0.715,0.984l0.775-0.984h0.687h0.247h1.414c0.303,0,0.52,0.019,0.65,0.058
			c0.219,0.065,0.391,0.202,0.517,0.409c0.094,0.153,0.141,0.323,0.141,0.507c0,0.152-0.031,0.296-0.092,0.432
			c-0.063,0.136-0.149,0.248-0.26,0.335c-0.096,0.077-0.201,0.132-0.314,0.162c-0.111,0.029-0.265,0.044-0.458,0.044h-1.139v1.045
			h-0.46h-0.247h-0.663l-0.799-1.025l-0.781,1.025h-0.632h-0.29h-2.318V17.864L17.498,17.864z M20.049,18.094v0.329h-1.844v0.604
			h1.608v0.568h-1.608v0.682h1.901l0.176,0.007l0.77-0.941L20.049,18.094L20.049,18.094z M35.789,20.854v-0.532h1.32
			c0.212,0,0.354-0.021,0.424-0.066c0.102-0.063,0.152-0.156,0.152-0.282c0-0.145-0.058-0.251-0.178-0.318
			c-0.067-0.037-0.176-0.056-0.324-0.056h-0.537c-0.326,0-0.562-0.063-0.707-0.184c-0.09-0.078-0.16-0.176-0.211-0.293
			c-0.051-0.117-0.077-0.243-0.077-0.376c0.001-0.21,0.06-0.402,0.178-0.576c0.116-0.167,0.302-0.265,0.558-0.292
			c0.086-0.01,0.215-0.015,0.385-0.015h1.436v0.532h-1.295c-0.193,0.003-0.322,0.011-0.385,0.027
			c-0.131,0.033-0.196,0.135-0.196,0.304c0,0.143,0.054,0.239,0.163,0.29c0.074,0.033,0.195,0.05,0.365,0.05h0.463
			c0.238,0,0.416,0.022,0.532,0.064c0.206,0.071,0.347,0.197,0.423,0.377c0.061,0.145,0.093,0.299,0.093,0.464
			c0,0.182-0.04,0.344-0.121,0.489c-0.112,0.204-0.283,0.326-0.511,0.365c-0.11,0.02-0.275,0.029-0.496,0.029H35.789L35.789,20.854z
			 M27.129,19.185h0.938c0.157,0,0.268-0.023,0.334-0.066c0.1-0.068,0.149-0.184,0.149-0.347c0-0.184-0.075-0.3-0.226-0.351
			c-0.053-0.018-0.139-0.027-0.258-0.027h-0.938V19.185L27.129,19.185z M27.129,19.716v1.138h-0.667v-2.991h1.532
			c0.439,0,0.746,0.054,0.92,0.16c0.119,0.071,0.209,0.166,0.275,0.283c0.064,0.119,0.098,0.248,0.098,0.39
			c0,0.285-0.076,0.504-0.228,0.658c-0.094,0.094-0.218,0.164-0.372,0.215c0.123,0.038,0.215,0.082,0.277,0.129
			c0.064,0.047,0.12,0.115,0.171,0.206c0.038,0.07,0.066,0.139,0.082,0.204c0.016,0.067,0.028,0.165,0.04,0.295
			c0.018,0.216,0.043,0.365,0.076,0.451h-0.75c-0.024-0.07-0.046-0.211-0.068-0.426c-0.02-0.175-0.053-0.309-0.102-0.401
			c-0.047-0.093-0.121-0.165-0.219-0.218c-0.121-0.063-0.298-0.093-0.529-0.093H27.129L27.129,19.716z M22.981,18.16l-0.983,1.183
			l0.983,1.208V18.16L22.981,18.16z M23.688,19.277h0.966c0.172,0,0.293-0.025,0.363-0.075c0.104-0.074,0.156-0.202,0.156-0.388
			c0-0.201-0.08-0.331-0.237-0.388c-0.056-0.021-0.145-0.031-0.268-0.031h-0.98V19.277L23.688,19.277z M13.277,13.22l-0.438,1.047
			h0.874L13.277,13.22L13.277,13.22z M11.629,15.491l1.272-2.989h0.752l1.271,2.989h-0.767l-0.295-0.691h-1.168l-0.297,0.691H11.629
			L11.629,15.491z M23.822,13.822h1.047c0.175,0,0.298-0.02,0.371-0.064c0.111-0.067,0.167-0.184,0.167-0.347
			c0.001-0.183-0.083-0.3-0.251-0.351c-0.059-0.018-0.154-0.026-0.287-0.026h-1.047V13.822L23.822,13.822z"/>
	</g>
</g>
</svg>
