<?xml version="1.0" encoding="utf-8"?>
<!-- Generator: Adobe Illustrator 17.0.0, SVG Export Plug-In . SVG Version: 6.00 Build 0)  -->
<!DOCTYPE svg PUBLIC "-//W3C//DTD SVG 1.1//EN" "http://www.w3.org/Graphics/SVG/1.1/DTD/svg11.dtd">
<svg version="1.1" id="Слой_1" xmlns="http://www.w3.org/2000/svg" xmlns:xlink="http://www.w3.org/1999/xlink" x="0px" y="0px"
	 width="50px" height="30px" viewBox="60 0 50 30" enable-background="new 60 0 50 30" xml:space="preserve">
<g id="Кредитки">
	<g>
		<polygon fill="#454545" points="79.387,19.445 82.073,10.514 84.487,10.508 81.803,19.437 		"/>
		<path fill="#454545" d="M78.287,10.525l-2.164,3.788c-0.551,0.993-0.873,1.493-1.026,2.12l-0.034,0.001
			c0.037-0.795-0.076-1.769-0.088-2.319l-0.248-3.582l-4.065,0.011l-0.041,0.239c1.045-0.002,1.665,0.522,1.839,1.594l0.809,7.082
			l2.502-0.005l5.037-8.934L78.287,10.525L78.287,10.525z"/>
		<path fill="#454545" d="M97.088,19.403l-0.07-1.327l-3.016,0.005l-0.613,1.331l-2.622,0.006l4.732-8.919l3.218-0.008l0.827,8.905
			L97.088,19.403L97.088,19.403z M96.797,14.138c-0.028-0.659-0.052-1.555-0.009-2.096h-0.036c-0.146,0.442-0.774,1.774-1.05,2.43
			l-0.894,1.958l2.118-0.005L96.797,14.138L96.797,14.138z"/>
		<path fill="#454545" d="M87.044,19.678c-1.705,0.005-2.837-0.533-3.646-1.013l1.146-1.76c0.727,0.403,1.298,0.87,2.607,0.867
			c0.421-0.002,0.828-0.111,1.056-0.51c0.334-0.582-0.08-0.894-1.024-1.426l-0.466-0.301c-1.401-0.953-2.008-1.859-1.354-3.445
			c0.42-1.015,1.529-1.784,3.361-1.788c1.264-0.005,2.451,0.539,3.143,1.072l-1.318,1.554c-0.676-0.543-1.235-0.817-1.875-0.815
			c-0.509,0.001-0.896,0.197-1.03,0.464c-0.25,0.499,0.083,0.838,0.82,1.292l0.555,0.351c1.7,1.067,2.108,2.188,1.684,3.24
			C89.976,19.268,88.544,19.676,87.044,19.678L87.044,19.678z"/>
		<path fill="#454545" d="M108.457,22.147l-46.578,0.11l0.011,4.611c0,0.238,0.042,0.466,0.115,0.68l46.35-0.109
			c0.074-0.215,0.113-0.443,0.112-0.68L108.457,22.147L108.457,22.147z"/>
		<path fill="#454545" d="M108.321,2.43L61.924,2.539c-0.058,0.193-0.09,0.397-0.089,0.607l0.011,4.686l46.578-0.111l-0.011-4.684
			C108.413,2.825,108.38,2.621,108.321,2.43L108.321,2.43z"/>
		<g>
			<path fill="#454545" d="M110,27.5c0,1.381-1.119,2.5-2.5,2.5h-45c-1.381,0-2.5-1.119-2.5-2.5v-25C60,1.119,61.119,0,62.5,0h45
				c1.381,0,2.5,1.119,2.5,2.5V27.5z M109,2.5c0-0.828-0.672-1.5-1.5-1.5h-45C61.672,1,61,1.672,61,2.5v25
				c0,0.828,0.672,1.5,1.5,1.5h45c0.828,0,1.5-0.672,1.5-1.5V2.5z"/>
		</g>
	</g>
</g>
</svg>
