<?xml version="1.0" encoding="utf-8"?>
<!-- Generator: Adobe Illustrator 17.0.0, SVG Export Plug-In . SVG Version: 6.00 Build 0)  -->
<!DOCTYPE svg PUBLIC "-//W3C//DTD SVG 1.1//EN" "http://www.w3.org/Graphics/SVG/1.1/DTD/svg11.dtd">
<svg version="1.1" id="Слой_1" xmlns="http://www.w3.org/2000/svg" xmlns:xlink="http://www.w3.org/1999/xlink" x="0px" y="0px"
	 width="50px" height="31px" viewBox="0 0 50 31" enable-background="new 0 0 50 31" xml:space="preserve">
<g id="Ховер">
	<g>
		<polygon fill-rule="evenodd" clip-rule="evenodd" fill="#005A9B" points="19.387,20.445 22.072,11.514 24.487,11.508 
			21.803,20.437 19.387,20.445 		"/>
		<path fill-rule="evenodd" clip-rule="evenodd" fill="#005A9B" d="M18.287,11.525l-2.164,3.788
			c-0.551,0.993-0.873,1.493-1.026,2.12l-0.034,0.001c0.037-0.795-0.076-1.769-0.088-2.319l-0.248-3.582l-4.066,0.011l-0.041,0.239
			c1.044-0.002,1.665,0.522,1.839,1.594l0.809,7.082l2.502-0.005l5.037-8.934L18.287,11.525L18.287,11.525z"/>
		<path fill-rule="evenodd" clip-rule="evenodd" fill="#005A9B" d="M37.088,20.403l-0.07-1.327l-3.016,0.005l-0.613,1.331
			l-2.621,0.006l4.732-8.919l3.218-0.008l0.827,8.905L37.088,20.403L37.088,20.403z M36.797,15.138
			c-0.027-0.659-0.052-1.555-0.008-2.096h-0.036c-0.146,0.442-0.774,1.774-1.05,2.43l-0.894,1.958l2.118-0.005L36.797,15.138
			L36.797,15.138z"/>
		<path fill-rule="evenodd" clip-rule="evenodd" fill="#005A9B" d="M27.045,20.678c-1.705,0.005-2.838-0.533-3.646-1.013l1.145-1.76
			c0.728,0.403,1.298,0.87,2.607,0.867c0.422-0.002,0.828-0.111,1.057-0.51c0.334-0.582-0.08-0.894-1.023-1.426l-0.467-0.301
			c-1.4-0.953-2.008-1.859-1.354-3.445c0.42-1.015,1.528-1.784,3.361-1.788c1.264-0.005,2.451,0.539,3.143,1.072l-1.318,1.554
			c-0.676-0.543-1.235-0.817-1.875-0.815c-0.51,0.001-0.896,0.197-1.029,0.464c-0.25,0.499,0.083,0.838,0.819,1.292l0.556,0.351
			c1.699,1.067,2.108,2.188,1.684,3.24C29.976,20.268,28.544,20.676,27.045,20.678L27.045,20.678z"/>
		<path fill-rule="evenodd" clip-rule="evenodd" fill="#FAA929" d="M48.457,23.147L1.88,23.257l0.011,4.611
			c0,0.238,0.043,0.466,0.115,0.68l46.35-0.109c0.073-0.215,0.113-0.443,0.112-0.68L48.457,23.147L48.457,23.147z"/>
		<path fill-rule="evenodd" clip-rule="evenodd" fill="#005A9B" d="M48.32,3.43L1.924,3.539c-0.059,0.193-0.09,0.397-0.09,0.607
			l0.012,4.686L48.424,8.72l-0.012-4.684C48.412,3.825,48.381,3.621,48.32,3.43L48.32,3.43z"/>
		<g>
			<path fill="#005A9B" d="M50,28.5c0,1.381-1.119,2.5-2.5,2.5h-45C1.119,31,0,29.881,0,28.5v-25C0,2.119,1.119,1,2.5,1h45
				C48.881,1,50,2.119,50,3.5V28.5z M49,3.5C49,2.672,48.328,2,47.5,2h-45C1.672,2,1,2.672,1,3.5v25C1,29.328,1.672,30,2.5,30h45
				c0.828,0,1.5-0.672,1.5-1.5V3.5z"/>
		</g>
	</g>
</g>
</svg>
