<?xml version="1.0" encoding="utf-8"?>
<!-- Generator: Adobe Illustrator 17.0.0, SVG Export Plug-In . SVG Version: 6.00 Build 0)  -->
<!DOCTYPE svg PUBLIC "-//W3C//DTD SVG 1.1//EN" "http://www.w3.org/Graphics/SVG/1.1/DTD/svg11.dtd">
<svg version="1.1" id="Слой_1" xmlns="http://www.w3.org/2000/svg" xmlns:xlink="http://www.w3.org/1999/xlink" x="0px" y="0px"
	 width="50px" height="30px" viewBox="0 0 50 30" enable-background="new 0 0 50 30" xml:space="preserve">
<g>
	<g>
		<path fill="#FCB330" d="M50,27.5c0,1.381-1.119,2.5-2.5,2.5h-45C1.119,30,0,28.881,0,27.5v-25C0,1.119,1.119,0,2.5,0h45
			C48.881,0,50,1.119,50,2.5V27.5z M49,2.5C49,1.672,48.328,1,47.5,1h-45C1.672,1,1,1.672,1,2.5v25C1,28.328,1.672,29,2.5,29h45
			c0.828,0,1.5-0.672,1.5-1.5V2.5z"/>
	</g>
	<g>
		<polygon fill-rule="evenodd" clip-rule="evenodd" fill="#FCB330" points="31.9,26.362 32.443,26.347 32.978,26.309 33.504,26.242 
			34.025,26.15 34.532,26.032 35.033,25.89 35.522,25.723 36.002,25.536 36.47,25.323 36.924,25.092 37.363,24.836 37.793,24.563 
			38.205,24.268 38.602,23.957 38.985,23.626 39.351,23.276 39.701,22.91 40.031,22.527 40.344,22.129 40.639,21.718 40.911,21.289 
			41.168,20.848 41.398,20.394 41.61,19.925 41.799,19.448 41.965,18.957 42.107,18.457 42.225,17.95 42.316,17.428 42.385,16.904 
			42.423,16.369 42.437,15.825 42.423,15.286 42.385,14.753 42.316,14.228 42.225,13.713 42.107,13.207 41.965,12.709 41.799,12.22 
			41.61,11.745 41.398,11.28 41.168,10.826 40.911,10.389 40.639,9.959 40.344,9.548 40.031,9.155 39.701,8.772 39.351,8.407 
			38.985,8.058 38.602,7.729 38.205,7.416 37.793,7.123 37.363,6.848 36.924,6.596 36.47,6.366 36.002,6.153 35.522,5.965 
			35.033,5.798 34.532,5.657 34.025,5.54 33.504,5.447 32.978,5.379 32.443,5.34 31.9,5.327 31.361,5.34 30.825,5.379 30.301,5.447 
			29.781,5.54 29.275,5.657 28.773,5.798 28.288,5.965 27.81,6.153 27.345,6.366 26.894,6.596 26.454,6.848 26.028,7.123 
			25.617,7.416 25.22,7.729 24.84,8.058 24.475,8.407 24.127,8.772 23.797,9.155 23.484,9.548 23.193,9.959 22.92,10.389 
			22.668,10.826 22.435,11.28 22.225,11.745 22.037,12.22 21.873,12.709 21.731,13.207 21.615,13.713 21.522,14.228 21.455,14.753 
			21.416,15.286 21.402,15.825 21.416,16.369 21.455,16.904 21.522,17.428 21.615,17.95 21.731,18.457 21.873,18.957 22.037,19.448 
			22.225,19.925 22.435,20.394 22.668,20.848 22.92,21.289 23.193,21.718 23.484,22.129 23.797,22.527 24.127,22.91 24.475,23.276 
			24.84,23.626 25.22,23.957 25.617,24.268 26.028,24.563 26.454,24.836 26.894,25.092 27.345,25.323 27.81,25.536 28.288,25.723 
			28.773,25.89 29.275,26.032 29.781,26.15 30.301,26.242 30.825,26.309 31.361,26.347 31.9,26.362 31.9,26.362 		"/>
		<polygon fill-rule="evenodd" clip-rule="evenodd" fill="#ED1B2D" points="17.83,26.362 18.369,26.347 18.904,26.309 19.43,26.242 
			19.947,26.15 20.455,26.032 20.955,25.89 21.44,25.723 21.92,25.536 22.385,25.323 22.835,25.092 23.275,24.836 23.701,24.563 
			24.113,24.268 24.51,23.957 24.889,23.626 25.255,23.276 25.602,22.91 25.933,22.527 26.244,22.129 26.535,21.718 26.809,21.289 
			27.06,20.848 27.295,20.394 27.504,19.925 27.692,19.448 27.855,18.957 27.998,18.457 28.115,17.95 28.207,17.428 28.273,16.904 
			28.312,16.369 28.327,15.825 28.312,15.286 28.273,14.753 28.207,14.228 28.115,13.713 27.998,13.207 27.855,12.709 27.692,12.22 
			27.504,11.745 27.295,11.28 27.06,10.826 26.809,10.389 26.535,9.959 26.244,9.548 25.933,9.155 25.602,8.772 25.255,8.407 
			24.889,8.058 24.51,7.729 24.113,7.416 23.701,7.123 23.275,6.848 22.835,6.596 22.385,6.366 21.92,6.153 21.44,5.965 
			20.955,5.798 20.455,5.657 19.947,5.54 19.43,5.447 18.904,5.379 18.369,5.34 17.83,5.327 17.287,5.34 16.75,5.379 16.225,5.447 
			15.704,5.54 15.197,5.657 14.696,5.798 14.207,5.965 13.727,6.153 13.26,6.366 12.805,6.596 12.365,6.848 11.935,7.123 
			11.525,7.416 11.127,7.729 10.744,8.058 10.379,8.407 10.027,8.772 9.697,9.155 9.385,9.548 9.091,9.959 8.817,10.389 
			8.562,10.826 8.332,11.28 8.119,11.745 7.931,12.22 7.764,12.709 7.621,13.207 7.505,13.713 7.412,14.228 7.346,14.753 
			7.307,15.286 7.292,15.825 7.307,16.369 7.346,16.904 7.412,17.428 7.505,17.95 7.621,18.457 7.764,18.957 7.931,19.448 
			8.119,19.925 8.332,20.394 8.562,20.848 8.817,21.289 9.091,21.718 9.385,22.129 9.697,22.527 10.027,22.91 10.379,23.276 
			10.744,23.626 11.127,23.957 11.525,24.268 11.935,24.563 12.365,24.836 12.805,25.092 13.26,25.323 13.727,25.536 14.207,25.723 
			14.696,25.89 15.197,26.032 15.704,26.15 16.225,26.242 16.75,26.309 17.287,26.347 17.83,26.362 17.83,26.362 		"/>
		<polygon fill-rule="evenodd" clip-rule="evenodd" fill="#FCB330" points="23.633,9.36 29.221,9.36 29.221,8.79 24.115,8.79 
			23.633,9.36 23.633,9.36 		"/>
		<polygon fill-rule="evenodd" clip-rule="evenodd" fill="#FCB330" points="22.797,10.63 29.221,10.63 29.221,10.06 23.133,10.06 
			22.797,10.63 22.797,10.63 		"/>
		<polygon fill-rule="evenodd" clip-rule="evenodd" fill="#FCB330" points="22.172,11.897 29.221,11.897 29.221,11.327 
			22.42,11.327 22.172,11.897 22.172,11.897 		"/>
		<polygon fill-rule="evenodd" clip-rule="evenodd" fill="#FCB330" points="21.742,13.166 29.221,13.166 29.221,12.596 
			21.92,12.596 21.742,13.166 21.742,13.166 		"/>
		<polygon fill-rule="evenodd" clip-rule="evenodd" fill="#FCB330" points="21.99,19.305 29.239,19.305 29.239,18.734 
			21.813,18.734 21.99,19.305 21.99,19.305 		"/>
		<polygon fill-rule="evenodd" clip-rule="evenodd" fill="#FCB330" points="22.527,20.576 29.239,20.576 29.239,20.004 
			22.26,20.004 22.527,20.576 22.527,20.576 		"/>
		<polygon fill-rule="evenodd" clip-rule="evenodd" fill="#FCB330" points="23.279,21.842 29.239,21.842 29.239,21.271 
			22.92,21.271 23.279,21.842 23.279,21.842 		"/>
		<polygon fill-rule="evenodd" clip-rule="evenodd" fill="#FCB330" points="24.314,23.113 29.239,23.113 29.239,22.538 
			23.814,22.538 24.314,23.113 24.314,23.113 		"/>
		<polygon fill-rule="evenodd" clip-rule="evenodd" fill="#FCB330" points="21.49,14.434 29.221,14.434 29.221,13.863 
			21.601,13.863 21.49,14.434 21.49,14.434 		"/>
		<polygon fill-rule="evenodd" clip-rule="evenodd" fill="#FCB330" points="26.202,18.039 29.15,18.039 29.15,17.467 26.309,17.467 
			26.202,18.039 26.202,18.039 		"/>
		<polygon fill-rule="evenodd" clip-rule="evenodd" fill="#FCB330" points="26.436,16.772 29.15,16.772 29.15,16.198 26.543,16.198 
			26.436,16.772 26.436,16.772 		"/>
		<polygon fill-rule="evenodd" clip-rule="evenodd" fill="#FCB330" points="21.295,16.198 22.061,16.198 22.061,16.772 
			21.331,16.772 21.295,16.198 21.295,16.198 		"/>
		<polygon fill-rule="evenodd" clip-rule="evenodd" fill="#FFFFFF" points="19.865,15.505 19.816,15.501 19.767,15.495 
			19.721,15.488 19.674,15.481 19.631,15.474 19.586,15.465 19.539,15.459 19.49,15.453 19.439,15.445 19.383,15.442 19.319,15.438 
			19.252,15.435 19.178,15.435 19.096,15.438 19.004,15.445 18.9,15.453 18.83,15.462 18.762,15.474 18.701,15.495 18.648,15.516 
			18.6,15.54 18.553,15.57 18.518,15.605 18.486,15.637 18.465,15.675 18.446,15.714 18.439,15.757 18.439,15.8 18.45,15.846 
			18.465,15.892 18.492,15.938 18.528,15.985 18.6,16.051 18.685,16.105 18.783,16.152 18.891,16.19 19.004,16.226 19.121,16.265 
			19.237,16.306 19.352,16.353 19.457,16.415 19.557,16.488 19.645,16.577 19.721,16.687 19.777,16.822 19.812,16.981 
			19.826,17.172 19.812,17.397 19.787,17.563 19.745,17.708 19.688,17.843 19.617,17.96 19.535,18.063 19.443,18.151 19.344,18.231 
			19.234,18.297 19.121,18.351 19.004,18.397 18.883,18.432 18.759,18.461 18.639,18.482 18.521,18.493 18.404,18.499 
			18.294,18.502 18.141,18.502 18,18.499 17.875,18.499 17.758,18.496 17.652,18.493 17.557,18.486 17.471,18.478 17.39,18.468 
			17.314,18.461 17.248,18.447 17.18,18.436 17.119,18.418 17.059,18.404 17.002,18.382 16.945,18.361 16.885,18.339 17.045,17.556 
			17.076,17.563 17.116,17.574 17.166,17.588 17.227,17.603 17.289,17.616 17.361,17.63 17.439,17.649 17.523,17.662 17.613,17.676 
			17.705,17.691 17.801,17.702 17.9,17.712 18.003,17.716 18.105,17.719 18.209,17.719 18.311,17.716 18.415,17.695 18.496,17.666 
			18.56,17.627 18.609,17.578 18.644,17.528 18.674,17.47 18.691,17.415 18.705,17.361 18.713,17.258 18.681,17.169 18.62,17.098 
			18.531,17.038 18.426,16.984 18.301,16.931 18.162,16.882 18.024,16.825 17.883,16.762 17.748,16.687 17.623,16.594 17.51,16.485 
			17.422,16.349 17.357,16.19 17.325,15.998 17.329,15.771 17.347,15.633 17.371,15.501 17.406,15.381 17.449,15.268 17.506,15.161 
			17.57,15.069 17.644,14.98 17.733,14.902 17.836,14.834 17.949,14.778 18.078,14.725 18.22,14.685 18.379,14.654 18.553,14.628 
			18.744,14.615 18.953,14.612 19.085,14.612 19.205,14.615 19.316,14.619 19.415,14.622 19.504,14.628 19.586,14.636 
			19.656,14.643 19.721,14.65 19.781,14.658 19.83,14.668 19.876,14.674 19.919,14.682 19.955,14.689 19.986,14.693 20.018,14.7 
			20.047,14.704 19.865,15.505 19.865,15.505 		"/>
		<polyline fill="none" stroke="#FFFFFF" stroke-width="0.216" stroke-miterlimit="2.6131" points="19.865,15.505 19.865,15.505 
			19.816,15.501 19.767,15.495 19.721,15.488 19.674,15.481 19.631,15.474 19.586,15.465 19.539,15.459 19.49,15.453 19.439,15.445 
			19.383,15.442 19.319,15.438 19.252,15.435 19.178,15.435 19.096,15.438 19.004,15.445 18.9,15.453 18.9,15.453 18.83,15.462 
			18.762,15.474 18.701,15.495 18.648,15.516 18.6,15.54 18.553,15.57 18.518,15.605 18.486,15.637 18.465,15.675 18.446,15.714 
			18.439,15.757 18.439,15.8 18.45,15.846 18.465,15.892 18.492,15.938 18.528,15.985 18.528,15.985 18.6,16.051 18.685,16.105 
			18.783,16.152 18.891,16.19 19.004,16.226 19.121,16.265 19.237,16.306 19.352,16.353 19.457,16.415 19.557,16.488 19.645,16.577 
			19.721,16.687 19.777,16.822 19.812,16.981 19.826,17.172 19.812,17.397 19.812,17.397 19.787,17.563 19.745,17.708 
			19.688,17.843 19.617,17.96 19.535,18.063 19.443,18.151 19.344,18.231 19.234,18.297 19.121,18.351 19.004,18.397 18.883,18.432 
			18.759,18.461 18.639,18.482 18.521,18.493 18.404,18.499 18.294,18.502 18.294,18.502 18.141,18.502 18,18.499 17.875,18.499 
			17.758,18.496 17.652,18.493 17.557,18.486 17.471,18.478 17.39,18.468 17.314,18.461 17.248,18.447 17.18,18.436 17.119,18.418 
			17.059,18.404 17.002,18.382 16.945,18.361 16.885,18.339 17.045,17.556 17.045,17.556 17.076,17.563 17.116,17.574 
			17.166,17.588 17.227,17.603 17.289,17.616 17.361,17.63 17.439,17.649 17.523,17.662 17.613,17.676 17.705,17.691 17.801,17.702 
			17.9,17.712 18.003,17.716 18.105,17.719 18.209,17.719 18.311,17.716 18.311,17.716 18.415,17.695 18.496,17.666 18.56,17.627 
			18.609,17.578 18.644,17.528 18.674,17.47 18.691,17.415 18.705,17.361 18.705,17.361 18.713,17.258 18.681,17.169 18.62,17.098 
			18.531,17.038 18.426,16.984 18.301,16.931 18.162,16.882 18.024,16.825 17.883,16.762 17.748,16.687 17.623,16.594 17.51,16.485 
			17.422,16.349 17.357,16.19 17.325,15.998 17.329,15.771 17.329,15.771 17.347,15.633 17.371,15.501 17.406,15.381 17.449,15.268 
			17.506,15.161 17.57,15.069 17.644,14.98 17.733,14.902 17.836,14.834 17.949,14.778 18.078,14.725 18.22,14.685 18.379,14.654 
			18.553,14.628 18.744,14.615 18.953,14.612 18.953,14.612 19.085,14.612 19.205,14.615 19.316,14.619 19.415,14.622 
			19.504,14.628 19.586,14.636 19.656,14.643 19.721,14.65 19.781,14.658 19.83,14.668 19.876,14.674 19.919,14.682 19.955,14.689 
			19.986,14.693 20.018,14.7 20.047,14.704 19.865,15.505 		"/>
		<polygon fill-rule="evenodd" clip-rule="evenodd" fill="#FFFFFF" points="20.706,13.828 21.689,13.828 21.544,14.685 
			22.137,14.685 22.009,15.488 21.384,15.469 21.043,17.45 21.04,17.52 21.058,17.582 21.094,17.627 21.139,17.666 21.203,17.691 
			21.274,17.712 21.352,17.726 21.437,17.733 21.516,17.73 21.586,17.722 21.65,17.712 21.707,17.699 21.753,17.684 21.785,17.673 
			21.807,17.666 21.813,17.662 21.689,18.323 21.664,18.339 21.64,18.354 21.615,18.369 21.59,18.382 21.564,18.394 21.536,18.404 
			21.505,18.415 21.473,18.425 21.437,18.436 21.402,18.443 21.359,18.45 21.316,18.457 21.27,18.464 21.217,18.472 21.16,18.478 
			21.1,18.486 20.83,18.486 20.689,18.475 20.564,18.461 20.451,18.44 20.355,18.415 20.273,18.382 20.206,18.347 20.146,18.304 
			20.1,18.258 20.064,18.208 20.039,18.149 20.021,18.088 20.012,18.021 20.008,17.946 20.008,17.868 20.018,17.788 20.029,17.699 
			20.706,13.828 20.706,13.828 		"/>
		<polyline fill="none" stroke="#FFFFFF" stroke-width="0.216" stroke-miterlimit="2.6131" points="20.706,13.828 21.689,13.828 
			21.544,14.685 22.137,14.685 22.009,15.488 21.384,15.469 21.043,17.45 21.043,17.45 21.04,17.52 21.058,17.582 21.094,17.627 
			21.139,17.666 21.203,17.691 21.274,17.712 21.352,17.726 21.437,17.733 21.437,17.733 21.516,17.73 21.586,17.722 21.65,17.712 
			21.707,17.699 21.753,17.684 21.785,17.673 21.807,17.666 21.813,17.662 21.689,18.323 21.689,18.323 21.664,18.339 21.64,18.354 
			21.615,18.369 21.59,18.382 21.564,18.394 21.536,18.404 21.505,18.415 21.473,18.425 21.437,18.436 21.402,18.443 21.359,18.45 
			21.316,18.457 21.27,18.464 21.217,18.472 21.16,18.478 21.1,18.486 20.83,18.486 20.83,18.486 20.689,18.475 20.564,18.461 
			20.451,18.44 20.355,18.415 20.273,18.382 20.206,18.347 20.146,18.304 20.1,18.258 20.064,18.208 20.039,18.149 20.021,18.088 
			20.012,18.021 20.008,17.946 20.008,17.868 20.018,17.788 20.029,17.699 20.706,13.828 		"/>
		<polygon fill-rule="evenodd" clip-rule="evenodd" fill="#FFFFFF" points="22.92,16.825 22.91,16.885 22.906,16.95 22.914,17.017 
			22.928,17.084 22.952,17.152 22.98,17.215 23.019,17.283 23.062,17.344 23.111,17.404 23.166,17.457 23.223,17.51 23.286,17.553 
			23.35,17.591 23.421,17.623 23.492,17.649 23.562,17.662 23.654,17.676 23.744,17.687 23.836,17.699 23.928,17.705 24.019,17.708 
			24.115,17.708 24.209,17.705 24.304,17.699 24.4,17.684 24.496,17.666 24.595,17.645 24.69,17.613 24.79,17.574 24.893,17.531 
			24.992,17.474 25.096,17.415 24.953,18.287 24.896,18.315 24.84,18.344 24.783,18.365 24.73,18.386 24.676,18.404 24.619,18.422 
			24.562,18.436 24.503,18.447 24.439,18.457 24.367,18.464 24.293,18.472 24.211,18.478 24.119,18.482 24.023,18.482 
			23.914,18.486 23.797,18.486 23.623,18.482 23.445,18.464 23.268,18.44 23.09,18.397 22.916,18.344 22.75,18.277 22.59,18.188 
			22.441,18.084 22.303,17.963 22.183,17.819 22.08,17.656 21.994,17.467 21.934,17.258 21.894,17.021 21.885,16.758 21.902,16.467 
			21.916,16.353 21.937,16.223 21.966,16.084 22.005,15.935 22.059,15.783 22.121,15.629 22.203,15.474 22.303,15.324 
			22.416,15.182 22.555,15.047 22.711,14.926 22.889,14.821 23.094,14.732 23.324,14.668 23.58,14.625 23.867,14.612 24.006,14.615 
			24.151,14.628 24.297,14.654 24.442,14.689 24.584,14.742 24.723,14.806 24.851,14.892 24.968,14.991 25.074,15.112 
			25.162,15.253 25.233,15.415 25.283,15.605 25.312,15.817 25.315,16.059 25.291,16.329 25.237,16.627 25.22,16.842 22.633,16.842 
			22.797,16.143 24.35,16.143 24.357,16.055 24.353,15.971 24.346,15.892 24.332,15.821 24.308,15.754 24.283,15.694 24.247,15.641 
			24.211,15.59 24.17,15.548 24.123,15.512 24.07,15.481 24.018,15.453 23.96,15.431 23.903,15.415 23.844,15.406 23.779,15.399 
			23.711,15.403 23.648,15.414 23.588,15.427 23.527,15.449 23.467,15.477 23.414,15.509 23.36,15.548 23.314,15.59 23.268,15.641 
			23.225,15.694 23.186,15.75 23.154,15.811 23.123,15.874 23.098,15.946 23.076,16.016 23.062,16.09 22.92,16.825 22.92,16.825 		
			"/>
		<polyline fill="none" stroke="#FFFFFF" stroke-width="0.216" stroke-miterlimit="2.6131" points="22.92,16.825 22.92,16.825 
			22.91,16.885 22.906,16.95 22.914,17.017 22.928,17.084 22.952,17.152 22.98,17.215 23.019,17.283 23.062,17.344 23.111,17.404 
			23.166,17.457 23.223,17.51 23.286,17.553 23.35,17.591 23.421,17.623 23.492,17.649 23.562,17.662 23.562,17.662 23.654,17.676 
			23.744,17.687 23.836,17.699 23.928,17.705 24.019,17.708 24.115,17.708 24.209,17.705 24.304,17.699 24.4,17.684 24.496,17.666 
			24.595,17.645 24.69,17.613 24.79,17.574 24.893,17.531 24.992,17.474 25.096,17.415 24.953,18.287 24.953,18.287 24.896,18.315 
			24.84,18.344 24.783,18.365 24.73,18.386 24.676,18.404 24.619,18.422 24.562,18.436 24.503,18.447 24.439,18.457 24.367,18.464 
			24.293,18.472 24.211,18.478 24.119,18.482 24.023,18.482 23.914,18.486 23.797,18.486 23.797,18.486 23.623,18.482 
			23.445,18.464 23.268,18.44 23.09,18.397 22.916,18.344 22.75,18.277 22.59,18.188 22.441,18.084 22.303,17.963 22.183,17.819 
			22.08,17.656 21.994,17.467 21.934,17.258 21.894,17.021 21.885,16.758 21.902,16.467 21.902,16.467 21.916,16.353 21.937,16.223 
			21.966,16.084 22.005,15.935 22.059,15.783 22.121,15.629 22.203,15.474 22.303,15.324 22.416,15.182 22.555,15.047 
			22.711,14.926 22.889,14.821 23.094,14.732 23.324,14.668 23.58,14.625 23.867,14.612 23.867,14.612 24.006,14.615 24.151,14.628 
			24.297,14.654 24.442,14.689 24.584,14.742 24.723,14.806 24.851,14.892 24.968,14.991 25.074,15.112 25.162,15.253 
			25.233,15.415 25.283,15.605 25.312,15.817 25.315,16.059 25.291,16.329 25.237,16.627 25.22,16.842 22.633,16.842 22.797,16.143 
			24.35,16.143 24.35,16.143 24.357,16.055 24.353,15.971 24.346,15.892 24.332,15.821 24.308,15.754 24.283,15.694 24.247,15.641 
			24.211,15.59 24.17,15.548 24.123,15.512 24.07,15.481 24.018,15.453 23.96,15.431 23.903,15.415 23.844,15.406 23.779,15.399 
			23.779,15.399 23.711,15.403 23.648,15.414 23.588,15.427 23.527,15.449 23.467,15.477 23.414,15.509 23.36,15.548 23.314,15.59 
			23.268,15.641 23.225,15.694 23.186,15.75 23.154,15.811 23.123,15.874 23.098,15.946 23.076,16.016 23.062,16.09 22.92,16.825 		
			"/>
		<polygon fill-rule="evenodd" clip-rule="evenodd" fill="#FFFFFF" points="31.383,14.899 31.336,14.873 31.29,14.853 31.24,14.828 
			31.187,14.803 31.134,14.781 31.073,14.76 31.014,14.739 30.949,14.717 30.882,14.7 30.814,14.685 30.74,14.671 30.665,14.662 
			30.584,14.654 30.502,14.647 30.417,14.647 30.328,14.647 30.24,14.647 30.147,14.654 30.052,14.665 29.952,14.682 29.853,14.711 
			29.754,14.75 29.654,14.8 29.555,14.863 29.459,14.942 29.367,15.034 29.277,15.147 29.193,15.278 29.115,15.435 29.04,15.612 
			28.973,15.811 28.916,16.038 28.894,16.165 28.881,16.29 28.873,16.415 28.877,16.535 28.889,16.655 28.912,16.768 28.944,16.875 
			28.984,16.981 29.037,17.077 29.101,17.169 29.176,17.251 29.26,17.325 29.355,17.39 29.467,17.443 29.587,17.489 29.722,17.52 
			29.768,17.531 29.82,17.541 29.885,17.549 29.955,17.556 30.033,17.563 30.115,17.563 30.205,17.563 30.293,17.556 30.385,17.545 
			30.477,17.528 30.566,17.502 30.654,17.474 30.744,17.436 30.825,17.39 30.899,17.332 30.971,17.268 30.81,18.216 30.789,18.234 
			30.769,18.255 30.74,18.281 30.708,18.301 30.669,18.33 30.619,18.354 30.562,18.379 30.499,18.4 30.417,18.425 30.324,18.443 
			30.219,18.457 30.094,18.472 29.955,18.478 29.797,18.482 29.615,18.478 29.416,18.468 29.254,18.45 29.09,18.415 28.927,18.361 
			28.764,18.29 28.607,18.206 28.459,18.098 28.316,17.975 28.185,17.833 28.068,17.673 27.969,17.497 27.885,17.297 27.82,17.081 
			27.777,16.842 27.764,16.59 27.769,16.315 27.81,16.02 27.838,15.874 27.869,15.733 27.905,15.595 27.94,15.462 27.98,15.339 
			28.025,15.214 28.072,15.097 28.121,14.988 28.176,14.876 28.228,14.775 28.288,14.674 28.352,14.582 28.416,14.494 28.487,14.41 
			28.558,14.332 28.633,14.256 28.714,14.185 28.795,14.119 28.881,14.058 28.969,14.001 29.064,13.948 29.16,13.901 29.26,13.859 
			29.363,13.821 29.473,13.785 29.583,13.756 29.697,13.732 29.817,13.709 29.937,13.692 30.066,13.679 30.193,13.671 
			30.328,13.667 30.441,13.671 30.552,13.679 30.658,13.689 30.766,13.704 30.864,13.717 30.959,13.738 31.052,13.756 
			31.137,13.778 31.219,13.799 31.29,13.821 31.357,13.841 31.414,13.863 31.463,13.88 31.506,13.895 31.538,13.909 31.559,13.916 
			31.383,14.899 31.383,14.899 		"/>
		<polyline fill="none" stroke="#FFFFFF" stroke-width="0.216" stroke-miterlimit="2.6131" points="31.383,14.899 31.383,14.899 
			31.336,14.873 31.29,14.853 31.24,14.828 31.187,14.803 31.134,14.781 31.073,14.76 31.014,14.739 30.949,14.717 30.882,14.7 
			30.814,14.685 30.74,14.671 30.665,14.662 30.584,14.654 30.502,14.647 30.417,14.647 30.328,14.647 30.328,14.647 30.24,14.647 
			30.147,14.654 30.052,14.665 29.952,14.682 29.853,14.711 29.754,14.75 29.654,14.8 29.555,14.863 29.459,14.942 29.367,15.034 
			29.277,15.147 29.193,15.278 29.115,15.435 29.04,15.612 28.973,15.811 28.916,16.038 28.916,16.038 28.894,16.165 28.881,16.29 
			28.873,16.415 28.877,16.535 28.889,16.655 28.912,16.768 28.944,16.875 28.984,16.981 29.037,17.077 29.101,17.169 
			29.176,17.251 29.26,17.325 29.355,17.39 29.467,17.443 29.587,17.489 29.722,17.52 29.722,17.52 29.768,17.531 29.82,17.541 
			29.885,17.549 29.955,17.556 30.033,17.563 30.115,17.563 30.205,17.563 30.293,17.556 30.385,17.545 30.477,17.528 
			30.566,17.502 30.654,17.474 30.744,17.436 30.825,17.39 30.899,17.332 30.971,17.268 30.81,18.216 30.81,18.216 30.789,18.234 
			30.769,18.255 30.74,18.281 30.708,18.301 30.669,18.33 30.619,18.354 30.562,18.379 30.499,18.4 30.417,18.425 30.324,18.443 
			30.219,18.457 30.094,18.472 29.955,18.478 29.797,18.482 29.615,18.478 29.416,18.468 29.416,18.468 29.254,18.45 29.09,18.415 
			28.927,18.361 28.764,18.29 28.607,18.206 28.459,18.098 28.316,17.975 28.185,17.833 28.068,17.673 27.969,17.497 27.885,17.297 
			27.82,17.081 27.777,16.842 27.764,16.59 27.769,16.315 27.81,16.02 27.81,16.02 27.838,15.874 27.869,15.733 27.905,15.595 
			27.94,15.462 27.98,15.339 28.025,15.214 28.072,15.097 28.121,14.988 28.176,14.876 28.228,14.775 28.288,14.674 28.352,14.582 
			28.416,14.494 28.487,14.41 28.558,14.332 28.633,14.256 28.714,14.185 28.795,14.119 28.881,14.058 28.969,14.001 29.064,13.948 
			29.16,13.901 29.26,13.859 29.363,13.821 29.473,13.785 29.583,13.756 29.697,13.732 29.817,13.709 29.937,13.692 30.066,13.679 
			30.193,13.671 30.328,13.667 30.328,13.667 30.441,13.671 30.552,13.679 30.658,13.689 30.766,13.704 30.864,13.717 
			30.959,13.738 31.052,13.756 31.137,13.778 31.219,13.799 31.29,13.821 31.357,13.841 31.414,13.863 31.463,13.88 31.506,13.895 
			31.538,13.909 31.559,13.916 31.383,14.899 		"/>
		<polygon fill-rule="evenodd" clip-rule="evenodd" fill="#FFFFFF" points="40.117,18.486 39.135,18.486 39.205,18.092 
			39.205,18.056 39.148,18.127 39.088,18.191 39.027,18.248 38.964,18.297 38.9,18.344 38.836,18.382 38.772,18.415 38.705,18.447 
			38.637,18.472 38.57,18.49 38.503,18.506 38.432,18.518 38.36,18.528 38.293,18.536 38.223,18.54 38.151,18.54 37.967,18.525 
			37.797,18.486 37.641,18.425 37.498,18.344 37.371,18.241 37.258,18.121 37.158,17.989 37.072,17.84 37.002,17.68 36.945,17.513 
			36.906,17.34 36.877,17.16 36.867,16.978 36.871,16.793 36.889,16.613 36.92,16.432 36.973,16.223 37.037,16.024 37.111,15.842 
			37.201,15.671 37.293,15.512 37.399,15.37 37.51,15.244 37.627,15.125 37.75,15.022 37.881,14.934 38.017,14.856 38.151,14.796 
			38.293,14.746 38.435,14.714 38.577,14.693 38.723,14.685 38.825,14.689 38.925,14.7 39.018,14.717 39.102,14.742 39.184,14.771 
			39.255,14.803 39.326,14.842 39.39,14.88 39.446,14.923 39.5,14.969 39.545,15.016 39.588,15.062 39.624,15.108 39.655,15.154 
			39.684,15.198 39.705,15.24 39.705,15.24 39.953,13.845 40.919,13.845 40.117,18.486 40.117,18.486 		"/>
		<polyline fill="none" stroke="#FFFFFF" stroke-width="0.216" stroke-miterlimit="2.6131" points="40.117,18.486 39.135,18.486 
			39.205,18.092 39.205,18.056 39.205,18.056 39.148,18.127 39.088,18.191 39.027,18.248 38.964,18.297 38.9,18.344 38.836,18.382 
			38.772,18.415 38.705,18.447 38.637,18.472 38.57,18.49 38.503,18.506 38.432,18.518 38.36,18.528 38.293,18.536 38.223,18.54 
			38.151,18.54 38.151,18.54 37.967,18.525 37.797,18.486 37.641,18.425 37.498,18.344 37.371,18.241 37.258,18.121 37.158,17.989 
			37.072,17.84 37.002,17.68 36.945,17.513 36.906,17.34 36.877,17.16 36.867,16.978 36.871,16.793 36.889,16.613 36.92,16.432 
			36.92,16.432 36.973,16.223 37.037,16.024 37.111,15.842 37.201,15.671 37.293,15.512 37.399,15.37 37.51,15.244 37.627,15.125 
			37.75,15.022 37.881,14.934 38.017,14.856 38.151,14.796 38.293,14.746 38.435,14.714 38.577,14.693 38.723,14.685 38.723,14.685 
			38.825,14.689 38.925,14.7 39.018,14.717 39.102,14.742 39.184,14.771 39.255,14.803 39.326,14.842 39.39,14.88 39.446,14.923 
			39.5,14.969 39.545,15.016 39.588,15.062 39.624,15.108 39.655,15.154 39.684,15.198 39.705,15.24 39.705,15.24 39.953,13.845 
			40.919,13.845 40.117,18.486 		"/>
		<polygon fill-rule="evenodd" clip-rule="evenodd" fill="#FCB330" points="38.51,17.627 38.609,17.62 38.701,17.599 38.787,17.574 
			38.868,17.536 38.942,17.493 39.014,17.439 39.081,17.378 39.141,17.315 39.194,17.244 39.244,17.165 39.29,17.084 39.329,16.999 
			39.365,16.911 39.393,16.819 39.418,16.723 39.435,16.627 39.453,16.528 39.464,16.424 39.464,16.329 39.461,16.23 39.45,16.137 
			39.435,16.048 39.41,15.963 39.383,15.882 39.347,15.811 39.305,15.743 39.258,15.687 39.205,15.637 39.144,15.595 39.081,15.566 
			39.014,15.548 38.939,15.54 38.844,15.548 38.754,15.562 38.673,15.59 38.592,15.625 38.52,15.671 38.449,15.729 38.389,15.79 
			38.329,15.857 38.275,15.935 38.227,16.016 38.18,16.101 38.141,16.194 38.105,16.29 38.076,16.385 38.049,16.488 38.027,16.59 
			38.01,16.747 38.017,16.917 38.041,17.091 38.088,17.258 38.158,17.404 38.251,17.52 38.367,17.599 38.51,17.627 38.51,17.627 		
			"/>
		<polygon fill-rule="evenodd" clip-rule="evenodd" fill="#FFFFFF" points="16.723,17.699 16.58,18.486 15.685,18.486 
			15.711,18.339 15.728,18.208 15.743,18.11 15.758,18.056 15.707,18.113 15.65,18.17 15.584,18.223 15.51,18.273 15.424,18.323 
			15.335,18.365 15.242,18.407 15.146,18.443 15.044,18.475 14.941,18.499 14.838,18.521 14.731,18.536 14.629,18.542 
			14.526,18.545 14.427,18.536 14.331,18.521 14.207,18.49 14.094,18.454 13.994,18.407 13.905,18.354 13.827,18.297 13.756,18.234 
			13.699,18.165 13.65,18.095 13.607,18.021 13.572,17.943 13.543,17.865 13.522,17.788 13.508,17.705 13.497,17.623 13.49,17.545 
			13.49,17.467 13.501,17.329 13.522,17.198 13.558,17.074 13.603,16.954 13.66,16.839 13.725,16.737 13.799,16.637 13.885,16.548 
			13.973,16.467 14.072,16.392 14.175,16.326 14.281,16.268 14.394,16.219 14.512,16.18 14.633,16.147 14.757,16.126 14.764,16.126 
			14.781,16.123 14.807,16.12 14.846,16.116 14.889,16.109 14.937,16.105 14.99,16.098 15.051,16.09 15.111,16.084 15.172,16.077 
			15.235,16.074 15.293,16.066 15.35,16.062 15.402,16.059 15.452,16.055 15.49,16.055 15.572,16.055 15.658,16.059 15.736,16.062 
			15.814,16.062 15.878,16.066 15.928,16.07 15.963,16.074 15.974,16.074 15.98,16.048 16.002,15.985 16.019,15.91 16.027,15.842 
			16.013,15.764 15.98,15.694 15.937,15.629 15.881,15.577 15.814,15.531 15.739,15.498 15.654,15.477 15.562,15.469 15.463,15.465 
			15.356,15.462 15.246,15.462 15.133,15.465 15.016,15.474 14.902,15.485 14.789,15.495 14.679,15.509 14.572,15.523 14.469,15.54 
			14.377,15.559 14.292,15.577 14.214,15.598 14.15,15.619 14.1,15.644 14.061,15.665 14.312,14.81 14.391,14.778 14.469,14.75 
			14.555,14.725 14.64,14.707 14.725,14.689 14.817,14.674 14.909,14.662 15.005,14.654 15.103,14.647 15.207,14.643 15.313,14.639 
			15.424,14.639 15.537,14.639 15.654,14.639 15.778,14.643 15.902,14.647 16.002,14.654 16.107,14.671 16.219,14.696 
			16.332,14.728 16.441,14.771 16.549,14.821 16.654,14.88 16.754,14.949 16.843,15.026 16.921,15.112 16.992,15.207 17.045,15.314 
			17.08,15.427 17.102,15.548 17.102,15.683 17.08,15.825 16.723,17.699 16.723,17.699 		"/>
		<polyline fill="none" stroke="#FFFFFF" stroke-width="0.216" stroke-miterlimit="2.6131" points="16.723,17.699 16.58,18.486 
			15.685,18.486 15.685,18.486 15.711,18.339 15.728,18.208 15.743,18.11 15.758,18.056 15.758,18.056 15.707,18.113 15.65,18.17 
			15.584,18.223 15.51,18.273 15.424,18.323 15.335,18.365 15.242,18.407 15.146,18.443 15.044,18.475 14.941,18.499 14.838,18.521 
			14.731,18.536 14.629,18.542 14.526,18.545 14.427,18.536 14.331,18.521 14.331,18.521 14.207,18.49 14.094,18.454 13.994,18.407 
			13.905,18.354 13.827,18.297 13.756,18.234 13.699,18.165 13.65,18.095 13.607,18.021 13.572,17.943 13.543,17.865 13.522,17.788 
			13.508,17.705 13.497,17.623 13.49,17.545 13.49,17.467 13.49,17.467 13.501,17.329 13.522,17.198 13.558,17.074 13.603,16.954 
			13.66,16.839 13.725,16.737 13.799,16.637 13.885,16.548 13.973,16.467 14.072,16.392 14.175,16.326 14.281,16.268 14.394,16.219 
			14.512,16.18 14.633,16.147 14.757,16.126 14.757,16.126 14.764,16.126 14.781,16.123 14.807,16.12 14.846,16.116 14.889,16.109 
			14.937,16.105 14.99,16.098 15.051,16.09 15.111,16.084 15.172,16.077 15.235,16.074 15.293,16.066 15.35,16.062 15.402,16.059 
			15.452,16.055 15.49,16.055 15.49,16.055 15.572,16.055 15.658,16.059 15.736,16.062 15.814,16.062 15.878,16.066 15.928,16.07 
			15.963,16.074 15.974,16.074 15.974,16.074 15.98,16.048 16.002,15.985 16.019,15.91 16.027,15.842 16.027,15.842 16.013,15.764 
			15.98,15.694 15.937,15.629 15.881,15.577 15.814,15.531 15.739,15.498 15.654,15.477 15.562,15.469 15.562,15.469 15.463,15.465 
			15.356,15.462 15.246,15.462 15.133,15.465 15.016,15.474 14.902,15.485 14.789,15.495 14.679,15.509 14.572,15.523 14.469,15.54 
			14.377,15.559 14.292,15.577 14.214,15.598 14.15,15.619 14.1,15.644 14.061,15.665 14.312,14.81 14.312,14.81 14.391,14.778 
			14.469,14.75 14.555,14.725 14.64,14.707 14.725,14.689 14.817,14.674 14.909,14.662 15.005,14.654 15.103,14.647 15.207,14.643 
			15.313,14.639 15.424,14.639 15.537,14.639 15.654,14.639 15.778,14.643 15.902,14.647 15.902,14.647 16.002,14.654 
			16.107,14.671 16.219,14.696 16.332,14.728 16.441,14.771 16.549,14.821 16.654,14.88 16.754,14.949 16.843,15.026 16.921,15.112 
			16.992,15.207 17.045,15.314 17.08,15.427 17.102,15.548 17.102,15.683 17.08,15.825 16.723,17.699 		"/>
		<polygon fill-rule="evenodd" clip-rule="evenodd" fill="#ED1B2D" points="15.867,16.772 15.863,16.754 15.85,16.737 
			15.828,16.726 15.793,16.719 15.754,16.712 15.707,16.708 15.654,16.708 15.602,16.708 15.544,16.712 15.484,16.719 
			15.428,16.726 15.371,16.733 15.317,16.74 15.268,16.75 15.225,16.762 15.185,16.772 15.161,16.779 15.133,16.79 15.094,16.804 
			15.055,16.822 15.008,16.842 14.963,16.868 14.913,16.892 14.867,16.921 14.817,16.957 14.771,16.992 14.728,17.035 
			14.689,17.077 14.654,17.123 14.629,17.172 14.607,17.229 14.598,17.287 14.594,17.407 14.611,17.502 14.646,17.574 
			14.693,17.627 14.746,17.662 14.807,17.684 14.863,17.695 14.92,17.699 15.026,17.695 15.122,17.684 15.215,17.669 15.296,17.649 
			15.367,17.623 15.435,17.591 15.494,17.56 15.548,17.52 15.594,17.485 15.637,17.443 15.672,17.404 15.7,17.361 15.725,17.319 
			15.746,17.276 15.764,17.237 15.775,17.198 15.803,17.095 15.828,16.978 15.85,16.864 15.867,16.772 15.867,16.772 		"/>
		<polygon fill-rule="evenodd" clip-rule="evenodd" fill="#FFFFFF" points="9.258,18.486 8.293,18.486 9.098,13.828 10.775,13.828 
			10.935,16.59 12.096,13.828 13.849,13.828 13.025,18.486 12.06,18.486 12.671,15.005 12.631,15.005 11.187,18.486 10.098,18.486 
			10.092,18.339 10.066,17.954 10.035,17.404 10,16.772 9.963,16.137 9.932,15.58 9.906,15.175 9.9,15.005 9.889,15.005 
			9.867,15.005 9.846,15.005 9.846,15.005 9.258,18.486 9.258,18.486 		"/>
		<polyline fill="none" stroke="#FFFFFF" stroke-width="0.216" stroke-miterlimit="2.6131" points="9.258,18.486 8.293,18.486 
			9.098,13.828 10.775,13.828 10.935,16.59 12.096,13.828 13.849,13.828 13.025,18.486 12.06,18.486 12.671,15.005 12.631,15.005 
			11.187,18.486 10.098,18.486 10.098,18.486 10.092,18.339 10.066,17.954 10.035,17.404 10,16.772 9.963,16.137 9.932,15.58 
			9.906,15.175 9.9,15.005 9.9,15.005 9.889,15.005 9.867,15.005 9.846,15.005 9.846,15.005 9.258,18.486 		"/>
		<polygon fill-rule="evenodd" clip-rule="evenodd" fill="#FFFFFF" points="34.33,17.699 34.185,18.486 33.295,18.486 
			33.301,18.339 33.305,18.212 33.305,18.117 33.312,18.074 33.266,18.127 33.213,18.18 33.148,18.231 33.078,18.281 33.004,18.327 
			32.918,18.369 32.83,18.411 32.74,18.447 32.644,18.475 32.545,18.502 32.446,18.521 32.347,18.536 32.244,18.542 32.144,18.545 
			32.049,18.536 31.953,18.521 31.826,18.49 31.712,18.454 31.612,18.407 31.52,18.354 31.442,18.297 31.375,18.234 31.318,18.165 
			31.269,18.095 31.226,18.021 31.193,17.943 31.166,17.865 31.148,17.788 31.134,17.705 31.123,17.623 31.116,17.545 
			31.116,17.467 31.123,17.329 31.144,17.198 31.176,17.074 31.223,16.954 31.275,16.839 31.343,16.737 31.418,16.637 31.5,16.548 
			31.592,16.467 31.687,16.392 31.79,16.326 31.9,16.268 32.01,16.219 32.127,16.18 32.244,16.147 32.365,16.126 32.371,16.126 
			32.39,16.123 32.414,16.12 32.449,16.116 32.496,16.109 32.545,16.105 32.6,16.098 32.656,16.09 32.716,16.084 32.779,16.077 
			32.84,16.074 32.9,16.066 32.957,16.062 33.007,16.059 33.057,16.055 33.096,16.055 33.182,16.055 33.266,16.059 33.348,16.062 
			33.426,16.062 33.492,16.066 33.549,16.07 33.582,16.074 33.596,16.074 33.603,16.048 33.613,15.985 33.625,15.91 33.631,15.842 
			33.617,15.764 33.589,15.694 33.543,15.629 33.489,15.577 33.426,15.531 33.352,15.498 33.273,15.477 33.187,15.469 
			33.089,15.465 32.982,15.462 32.872,15.462 32.759,15.465 32.642,15.474 32.528,15.485 32.414,15.495 32.305,15.509 
			32.198,15.523 32.096,15.54 32.003,15.559 31.918,15.577 31.84,15.598 31.775,15.619 31.727,15.644 31.687,15.665 31.935,14.81 
			32.014,14.778 32.096,14.75 32.176,14.725 32.262,14.707 32.351,14.689 32.439,14.674 32.531,14.662 32.627,14.654 32.727,14.647 
			32.83,14.643 32.932,14.639 33.043,14.639 33.152,14.639 33.266,14.639 33.387,14.643 33.508,14.647 33.606,14.654 33.713,14.671 
			33.823,14.696 33.936,14.728 34.047,14.771 34.156,14.821 34.263,14.88 34.362,14.949 34.451,15.026 34.532,15.112 34.603,15.207 
			34.656,15.314 34.695,15.427 34.721,15.548 34.721,15.683 34.703,15.825 34.33,17.699 34.33,17.699 		"/>
		<polygon fill-rule="evenodd" clip-rule="evenodd" fill="#FFFFFF" points="34.185,18.511 34.206,18.49 34.352,17.702 
			34.309,17.695 34.164,18.482 34.185,18.461 34.185,18.511 34.202,18.506 34.206,18.49 34.185,18.511 34.185,18.511 		"/>
		<polygon fill-rule="evenodd" clip-rule="evenodd" fill="#FFFFFF" points="33.273,18.486 33.295,18.511 34.185,18.511 
			34.185,18.461 33.295,18.461 33.315,18.486 33.273,18.486 33.269,18.511 33.295,18.511 33.273,18.486 33.273,18.486 		"/>
		<polygon fill-rule="evenodd" clip-rule="evenodd" fill="#FFFFFF" points="33.33,18.088 33.298,18.059 33.283,18.117 
			33.279,18.212 33.279,18.339 33.273,18.486 33.315,18.486 33.322,18.339 33.33,18.212 33.326,18.117 33.326,18.088 33.295,18.059 
			33.33,18.088 33.33,18.088 		"/>
		<polygon fill-rule="evenodd" clip-rule="evenodd" fill="#FFFFFF" points="31.949,18.542 31.949,18.542 32.049,18.557 
			32.144,18.568 32.244,18.564 32.347,18.557 32.449,18.542 32.549,18.525 32.648,18.496 32.748,18.468 32.836,18.432 
			32.929,18.389 33.014,18.347 33.089,18.297 33.163,18.248 33.227,18.198 33.283,18.141 33.33,18.088 33.295,18.059 33.248,18.113 
			33.198,18.163 33.135,18.212 33.067,18.262 32.993,18.304 32.907,18.347 32.822,18.389 32.734,18.425 32.642,18.454 
			32.542,18.482 32.443,18.499 32.347,18.514 32.244,18.521 32.144,18.525 32.049,18.514 31.957,18.499 31.957,18.499 
			31.949,18.542 31.949,18.542 		"/>
		<polygon fill-rule="evenodd" clip-rule="evenodd" fill="#FFFFFF" points="31.092,17.467 31.092,17.467 31.095,17.545 
			31.102,17.623 31.112,17.708 31.127,17.79 31.144,17.868 31.172,17.95 31.205,18.032 31.25,18.106 31.301,18.18 31.357,18.248 
			31.428,18.315 31.51,18.373 31.602,18.429 31.705,18.475 31.822,18.511 31.949,18.542 31.957,18.499 31.829,18.468 31.719,18.432 
			31.623,18.386 31.531,18.336 31.457,18.281 31.393,18.219 31.336,18.151 31.286,18.084 31.247,18.01 31.215,17.936 31.187,17.862 
			31.169,17.784 31.154,17.702 31.144,17.623 31.137,17.545 31.141,17.467 31.141,17.467 31.092,17.467 31.092,17.467 		"/>
		<polygon fill-rule="evenodd" clip-rule="evenodd" fill="#FFFFFF" points="32.365,16.105 32.365,16.105 32.24,16.126 32.12,16.158 
			32.003,16.198 31.889,16.248 31.779,16.303 31.673,16.374 31.577,16.449 31.484,16.535 31.4,16.623 31.325,16.723 31.254,16.83 
			31.201,16.947 31.154,17.067 31.123,17.195 31.102,17.329 31.092,17.467 31.141,17.467 31.144,17.329 31.166,17.202 
			31.197,17.081 31.244,16.96 31.297,16.85 31.361,16.75 31.435,16.651 31.514,16.563 31.605,16.485 31.701,16.411 31.801,16.346 
			31.91,16.29 32.018,16.24 32.135,16.201 32.248,16.168 32.365,16.147 32.365,16.147 32.365,16.105 32.365,16.105 		"/>
		<polygon fill-rule="evenodd" clip-rule="evenodd" fill="#FFFFFF" points="33.096,16.031 33.096,16.031 33.057,16.031 
			33.007,16.038 32.957,16.041 32.9,16.044 32.84,16.051 32.779,16.055 32.716,16.062 32.656,16.07 32.6,16.077 32.545,16.084 
			32.496,16.087 32.449,16.094 32.414,16.098 32.387,16.101 32.371,16.105 32.365,16.105 32.365,16.147 32.371,16.147 
			32.393,16.143 32.414,16.141 32.449,16.137 32.496,16.13 32.545,16.126 32.6,16.12 32.656,16.112 32.716,16.105 32.779,16.098 
			32.84,16.094 32.9,16.087 32.957,16.084 33.007,16.081 33.057,16.081 33.096,16.081 33.096,16.081 33.096,16.031 33.096,16.031 		
			"/>
		<polygon fill-rule="evenodd" clip-rule="evenodd" fill="#FFFFFF" points="33.574,16.07 33.596,16.051 33.582,16.051 
			33.549,16.048 33.492,16.044 33.426,16.038 33.348,16.038 33.266,16.038 33.182,16.031 33.096,16.031 33.096,16.081 
			33.182,16.081 33.266,16.081 33.348,16.087 33.426,16.087 33.492,16.087 33.549,16.09 33.582,16.094 33.596,16.094 33.617,16.077 
			33.596,16.094 33.613,16.098 33.617,16.077 33.574,16.07 33.574,16.07 		"/>
		<polygon fill-rule="evenodd" clip-rule="evenodd" fill="#FFFFFF" points="33.609,15.842 33.606,15.842 33.603,15.91 
			33.592,15.981 33.582,16.044 33.574,16.07 33.617,16.077 33.625,16.051 33.635,15.989 33.645,15.91 33.656,15.842 33.652,15.842 
			33.609,15.842 33.609,15.842 		"/>
		<polygon fill-rule="evenodd" clip-rule="evenodd" fill="#FFFFFF" points="33.187,15.491 33.187,15.495 33.269,15.498 
			33.344,15.52 33.415,15.551 33.475,15.595 33.524,15.644 33.568,15.704 33.596,15.767 33.609,15.842 33.652,15.842 33.639,15.761 
			33.609,15.683 33.56,15.616 33.504,15.559 33.436,15.509 33.358,15.477 33.276,15.456 33.187,15.445 33.187,15.449 33.187,15.491 
			33.187,15.491 		"/>
		<polygon fill-rule="evenodd" clip-rule="evenodd" fill="#FFFFFF" points="31.666,15.662 31.701,15.683 31.736,15.665 
			31.783,15.641 31.844,15.619 31.922,15.598 32.006,15.58 32.099,15.562 32.201,15.545 32.305,15.531 32.414,15.516 32.528,15.505 
			32.642,15.495 32.759,15.488 32.872,15.488 32.982,15.488 33.089,15.488 33.187,15.491 33.187,15.449 33.089,15.445 
			32.982,15.438 32.872,15.438 32.759,15.445 32.642,15.453 32.528,15.462 32.414,15.474 32.305,15.488 32.194,15.501 32.092,15.52 
			32,15.538 31.914,15.555 31.836,15.577 31.769,15.598 31.715,15.623 31.673,15.647 31.709,15.668 31.666,15.662 31.666,15.662 		
			"/>
		<polygon fill-rule="evenodd" clip-rule="evenodd" fill="#FFFFFF" points="31.928,14.789 31.914,14.806 31.666,15.662 
			31.709,15.668 31.957,14.813 31.943,14.832 31.928,14.789 31.918,14.791 31.914,14.806 31.928,14.789 31.928,14.789 		"/>
		<polygon fill-rule="evenodd" clip-rule="evenodd" fill="#FFFFFF" points="33.508,14.625 33.508,14.625 33.387,14.619 
			33.266,14.615 33.152,14.615 33.043,14.615 32.932,14.615 32.83,14.622 32.727,14.625 32.627,14.632 32.531,14.639 32.435,14.654 
			32.347,14.668 32.259,14.685 32.173,14.704 32.088,14.728 32.006,14.757 31.928,14.789 31.943,14.832 32.02,14.8 32.102,14.771 
			32.18,14.746 32.266,14.728 32.354,14.711 32.443,14.696 32.531,14.682 32.627,14.674 32.727,14.668 32.83,14.665 32.932,14.665 
			33.043,14.665 33.152,14.665 33.266,14.665 33.387,14.668 33.508,14.668 33.508,14.668 33.508,14.625 33.508,14.625 		"/>
		<polygon fill-rule="evenodd" clip-rule="evenodd" fill="#FFFFFF" points="34.725,15.829 34.725,15.829 34.742,15.683 
			34.742,15.548 34.717,15.423 34.678,15.307 34.621,15.198 34.55,15.097 34.465,15.009 34.376,14.93 34.273,14.863 34.167,14.8 
			34.054,14.75 33.943,14.707 33.826,14.674 33.717,14.65 33.606,14.632 33.508,14.625 33.508,14.668 33.606,14.674 33.709,14.693 
			33.819,14.717 33.93,14.75 34.039,14.791 34.145,14.842 34.252,14.899 34.348,14.966 34.436,15.044 34.515,15.125 34.586,15.218 
			34.635,15.321 34.674,15.431 34.699,15.548 34.699,15.683 34.682,15.821 34.682,15.821 34.725,15.829 34.725,15.829 		"/>
		<polygon fill-rule="evenodd" clip-rule="evenodd" fill="#FFFFFF" points="34.352,17.702 34.352,17.702 34.725,15.829 
			34.682,15.821 34.309,17.695 34.309,17.695 34.352,17.702 34.352,17.702 		"/>
		<polygon fill-rule="evenodd" clip-rule="evenodd" fill="#FCB330" points="33.472,16.772 33.465,16.75 33.451,16.733 
			33.426,16.723 33.391,16.712 33.352,16.708 33.305,16.705 33.252,16.705 33.198,16.708 33.142,16.715 33.085,16.723 
			33.028,16.729 32.975,16.737 32.922,16.747 32.876,16.754 32.83,16.765 32.794,16.772 32.769,16.776 32.74,16.787 32.705,16.796 
			32.666,16.811 32.62,16.832 32.578,16.854 32.528,16.878 32.482,16.911 32.435,16.942 32.39,16.981 32.351,17.021 32.311,17.067 
			32.279,17.117 32.254,17.169 32.233,17.227 32.223,17.287 32.219,17.407 32.236,17.502 32.266,17.574 32.309,17.627 
			32.361,17.662 32.422,17.684 32.482,17.695 32.542,17.699 32.648,17.695 32.748,17.684 32.84,17.666 32.922,17.641 33,17.613 
			33.067,17.582 33.131,17.545 33.187,17.502 33.238,17.463 33.279,17.417 33.319,17.375 33.352,17.329 33.375,17.287 
			33.394,17.244 33.408,17.202 33.418,17.163 33.433,17.063 33.451,16.96 33.465,16.861 33.472,16.772 33.472,16.772 		"/>
		<polygon fill-rule="evenodd" clip-rule="evenodd" fill="#FFFFFF" points="40.781,17.999 40.787,17.917 40.816,17.822 
			40.865,17.737 40.926,17.662 41,17.603 41.086,17.56 41.178,17.531 41.277,17.52 41.377,17.531 41.469,17.56 41.555,17.603 
			41.629,17.662 41.688,17.737 41.738,17.822 41.766,17.917 41.773,17.999 41.668,17.999 41.664,17.936 41.643,17.858 
			41.607,17.788 41.56,17.726 41.504,17.676 41.436,17.641 41.358,17.616 41.277,17.609 41.195,17.616 41.117,17.641 41.051,17.676 
			40.993,17.726 40.947,17.788 40.911,17.858 40.891,17.936 40.883,17.999 40.781,17.999 40.781,17.999 		"/>
		<polygon fill-rule="evenodd" clip-rule="evenodd" fill="#FFFFFF" points="41.1,17.999 41.1,17.788 41.295,17.788 41.338,17.79 
			41.377,17.797 41.404,17.808 41.43,17.822 41.447,17.843 41.461,17.865 41.469,17.89 41.473,17.915 41.469,17.946 41.461,17.971 
			41.451,17.993 41.443,17.999 41.295,17.999 41.309,17.997 41.334,17.993 41.355,17.986 41.373,17.979 41.387,17.967 
			41.394,17.957 41.4,17.939 41.4,17.915 41.398,17.896 41.391,17.883 41.38,17.875 41.369,17.868 41.352,17.865 41.334,17.862 
			41.316,17.862 41.295,17.862 41.188,17.862 41.188,17.999 41.1,17.999 41.1,17.999 		"/>
		<polygon fill-rule="evenodd" clip-rule="evenodd" fill="#FFFFFF" points="40.781,17.999 40.777,18.021 40.787,18.123 
			40.816,18.219 40.865,18.304 40.926,18.376 41,18.436 41.086,18.482 41.178,18.511 41.277,18.521 41.377,18.511 41.469,18.482 
			41.555,18.436 41.629,18.376 41.688,18.304 41.738,18.219 41.766,18.123 41.777,18.021 41.773,17.999 41.668,17.999 41.67,18.021 
			41.664,18.106 41.643,18.185 41.607,18.251 41.56,18.311 41.504,18.361 41.436,18.4 41.358,18.425 41.277,18.432 41.195,18.425 
			41.117,18.4 41.051,18.361 40.993,18.311 40.947,18.251 40.911,18.185 40.891,18.106 40.883,18.021 40.883,17.999 40.781,17.999 
			40.781,17.999 		"/>
		<polygon fill-rule="evenodd" clip-rule="evenodd" fill="#FFFFFF" points="41.1,17.999 41.1,18.216 41.188,18.216 41.188,18.039 
			41.277,18.039 41.383,18.216 41.454,18.216 41.348,18.039 41.373,18.039 41.398,18.032 41.419,18.025 41.436,18.01 41.443,17.999 
			41.295,17.999 41.277,18.002 41.188,18.002 41.188,17.999 41.1,17.999 41.1,17.999 		"/>
		<path fill="#FFFFFF" d="M40.777,18.021L40.777,18.021l0.01-0.104l0.029-0.096l0.049-0.085l0.061-0.075L41,17.603l0.086-0.043
			l0.092-0.029l0.1-0.011l0,0l0.1,0.011l0.092,0.029l0.086,0.043l0.074,0.059l0.06,0.075l0.05,0.085l0.027,0.096l0.012,0.104l0,0
			l-0.012,0.102l-0.027,0.096l-0.05,0.085l-0.06,0.072l-0.074,0.059l-0.086,0.046l-0.092,0.029l-0.1,0.01l0,0l-0.1-0.01
			l-0.092-0.029L41,18.436l-0.074-0.059l-0.061-0.072l-0.049-0.085l-0.029-0.096L40.777,18.021 M41.188,18.216H41.1v-0.429h0.195
			l0,0l0.043,0.003l0.039,0.007l0.027,0.011l0.025,0.014l0.018,0.021l0.014,0.021l0.008,0.025l0.004,0.024l0,0l-0.004,0.031
			l-0.008,0.025l-0.01,0.022l-0.015,0.018l-0.018,0.015l-0.021,0.007l-0.025,0.007h-0.025l0.106,0.178h-0.071l-0.105-0.178h-0.089
			V18.216 M41.277,18.002L41.277,18.002l0.031-0.006l0.025-0.004l0.021-0.007l0.018-0.007l0.014-0.012l0.008-0.01l0.006-0.019
			v-0.024l0,0l-0.002-0.019l-0.008-0.013l-0.011-0.008l-0.011-0.008l-0.018-0.003l-0.018-0.003h-0.018h-0.021h-0.106v0.141H41.277
			 M41.277,18.432L41.277,18.432l0.081-0.007l0.078-0.025l0.067-0.039l0.057-0.05l0.047-0.059l0.035-0.066l0.021-0.079l0.006-0.085
			l0,0l-0.006-0.085l-0.021-0.078l-0.035-0.07l-0.047-0.062l-0.057-0.05l-0.067-0.035l-0.078-0.025l-0.081-0.007l0,0l-0.082,0.007
			l-0.078,0.025l-0.066,0.035l-0.058,0.05l-0.046,0.062l-0.036,0.07l-0.021,0.078l-0.008,0.085l0,0l0.008,0.085l0.021,0.079
			l0.036,0.066l0.046,0.059l0.058,0.05l0.066,0.039l0.078,0.025L41.277,18.432"/>
		<polygon fill-rule="evenodd" clip-rule="evenodd" fill="#FFFFFF" points="34.596,18.486 35.598,18.486 35.598,18.486 
			35.955,16.467 35.969,16.389 35.99,16.311 36.012,16.233 36.041,16.155 36.076,16.077 36.118,16.002 36.164,15.931 36.222,15.863 
			36.285,15.803 36.355,15.747 36.437,15.694 36.529,15.651 36.633,15.616 36.746,15.586 36.871,15.566 37.01,15.559 37.059,15.559 
			37.086,15.559 37.098,15.559 37.098,15.559 37.258,14.647 37.158,14.654 37.062,14.665 36.973,14.682 36.889,14.707 36.81,14.735 
			36.736,14.771 36.664,14.81 36.598,14.853 36.533,14.902 36.474,14.952 36.416,15.009 36.359,15.065 36.307,15.125 36.254,15.194 
			36.2,15.257 36.15,15.328 36.257,14.685 35.26,14.685 34.596,18.486 34.596,18.486 34.596,18.486 		"/>
		<polyline fill="none" stroke="#FFFFFF" stroke-width="0.216" stroke-miterlimit="2.6131" points="34.596,18.486 35.598,18.486 
			35.598,18.486 35.955,16.467 35.955,16.467 35.969,16.389 35.99,16.311 36.012,16.233 36.041,16.155 36.076,16.077 36.118,16.002 
			36.164,15.931 36.222,15.863 36.285,15.803 36.355,15.747 36.437,15.694 36.529,15.651 36.633,15.616 36.746,15.586 
			36.871,15.566 37.01,15.559 37.01,15.559 37.059,15.559 37.086,15.559 37.098,15.559 37.098,15.559 37.258,14.647 37.258,14.647 
			37.158,14.654 37.062,14.665 36.973,14.682 36.889,14.707 36.81,14.735 36.736,14.771 36.664,14.81 36.598,14.853 36.533,14.902 
			36.474,14.952 36.416,15.009 36.359,15.065 36.307,15.125 36.254,15.194 36.2,15.257 36.15,15.328 36.257,14.685 35.26,14.685 
			34.596,18.486 34.596,18.486 		"/>
		<polygon fill-rule="evenodd" clip-rule="evenodd" fill="#FFFFFF" points="25.201,18.486 26.202,18.486 26.22,18.486 26.56,16.467 
			26.574,16.389 26.592,16.315 26.61,16.24 26.635,16.168 26.663,16.098 26.699,16.031 26.741,15.966 26.791,15.907 26.848,15.853 
			26.912,15.8 26.989,15.757 27.075,15.717 27.174,15.687 27.284,15.658 27.404,15.641 27.543,15.629 27.554,15.629 27.568,15.633 
			27.586,15.637 27.603,15.637 27.621,15.641 27.636,15.644 27.646,15.647 27.649,15.647 27.653,15.633 27.664,15.59 27.678,15.527 
			27.695,15.449 27.721,15.357 27.746,15.257 27.777,15.158 27.81,15.058 27.838,14.991 27.873,14.923 27.908,14.856 27.943,14.796 
			27.977,14.742 28.001,14.7 28.019,14.674 28.025,14.665 28.021,14.665 28.008,14.662 27.99,14.658 27.965,14.654 27.94,14.654 
			27.912,14.65 27.887,14.647 27.863,14.647 27.752,14.654 27.653,14.665 27.56,14.682 27.477,14.704 27.394,14.732 27.32,14.767 
			27.252,14.803 27.187,14.846 27.128,14.892 27.071,14.945 27.018,14.998 26.965,15.058 26.912,15.118 26.861,15.186 
			26.809,15.257 26.756,15.328 26.883,14.685 25.865,14.685 25.201,18.486 25.201,18.486 25.201,18.486 		"/>
		<polyline fill="none" stroke="#FFFFFF" stroke-width="0.216" stroke-miterlimit="2.6131" points="25.201,18.486 26.202,18.486 
			26.22,18.486 26.56,16.467 26.56,16.467 26.574,16.389 26.592,16.315 26.61,16.24 26.635,16.168 26.663,16.098 26.699,16.031 
			26.741,15.966 26.791,15.907 26.848,15.853 26.912,15.8 26.989,15.757 27.075,15.717 27.174,15.687 27.284,15.658 27.404,15.641 
			27.543,15.629 27.543,15.629 27.554,15.629 27.568,15.633 27.586,15.637 27.603,15.637 27.621,15.641 27.636,15.644 
			27.646,15.647 27.649,15.647 27.649,15.647 27.653,15.633 27.664,15.59 27.678,15.527 27.695,15.449 27.721,15.357 27.746,15.257 
			27.777,15.158 27.81,15.058 27.81,15.058 27.838,14.991 27.873,14.923 27.908,14.856 27.943,14.796 27.977,14.742 28.001,14.7 
			28.019,14.674 28.025,14.665 28.025,14.665 28.021,14.665 28.008,14.662 27.99,14.658 27.965,14.654 27.94,14.654 27.912,14.65 
			27.887,14.647 27.863,14.647 27.863,14.647 27.752,14.654 27.653,14.665 27.56,14.682 27.477,14.704 27.394,14.732 27.32,14.767 
			27.252,14.803 27.187,14.846 27.128,14.892 27.071,14.945 27.018,14.998 26.965,15.058 26.912,15.118 26.861,15.186 
			26.809,15.257 26.756,15.328 26.883,14.685 25.865,14.685 25.201,18.486 25.201,18.486 		"/>
		<polygon fill-rule="evenodd" clip-rule="evenodd" fill="#939598" points="40.787,22.217 40.787,22.204 40.816,22.112 
			40.865,22.03 40.926,21.958 41,21.902 41.086,21.86 41.178,21.834 41.277,21.825 41.377,21.834 41.469,21.86 41.555,21.902 
			41.629,21.958 41.688,22.03 41.738,22.112 41.766,22.204 41.766,22.217 41.664,22.217 41.643,22.144 41.607,22.076 41.56,22.016 
			41.504,21.966 41.436,21.927 41.358,21.902 41.277,21.895 41.195,21.902 41.117,21.927 41.051,21.966 40.993,22.016 
			40.947,22.076 40.911,22.144 40.891,22.217 40.787,22.217 40.787,22.217 		"/>
		<polygon fill-rule="evenodd" clip-rule="evenodd" fill="#939598" points="41.1,22.217 41.1,22.094 41.295,22.094 41.338,22.094 
			41.377,22.101 41.404,22.108 41.43,22.122 41.447,22.14 41.461,22.161 41.469,22.186 41.473,22.217 41.4,22.217 41.4,22.201 
			41.398,22.183 41.391,22.168 41.38,22.161 41.369,22.155 41.352,22.151 41.334,22.147 41.316,22.147 41.295,22.147 41.188,22.147 
			41.188,22.217 41.1,22.217 41.1,22.217 		"/>
		<polygon fill-rule="evenodd" clip-rule="evenodd" fill="#939598" points="40.777,22.296 40.787,22.217 40.891,22.217 
			40.891,22.222 40.883,22.296 40.777,22.296 40.777,22.296 		"/>
		<polygon fill-rule="evenodd" clip-rule="evenodd" fill="#939598" points="41.1,22.296 41.1,22.217 41.188,22.217 41.188,22.29 
			41.277,22.29 41.309,22.282 41.334,22.278 41.355,22.271 41.373,22.264 41.387,22.253 41.394,22.243 41.4,22.225 41.4,22.217 
			41.473,22.217 41.473,22.217 41.469,22.243 41.461,22.264 41.451,22.282 41.436,22.296 41.1,22.296 41.1,22.296 		"/>
		<polygon fill-rule="evenodd" clip-rule="evenodd" fill="#939598" points="41.67,22.296 41.664,22.222 41.664,22.217 
			41.766,22.217 41.777,22.296 41.67,22.296 41.67,22.296 		"/>
		<polygon fill-rule="evenodd" clip-rule="evenodd" fill="#939598" points="40.777,22.296 40.777,22.306 40.787,22.41 
			40.816,22.505 40.865,22.59 40.926,22.665 41,22.726 41.086,22.768 41.178,22.796 41.277,22.807 41.377,22.796 41.469,22.768 
			41.555,22.726 41.629,22.665 41.688,22.59 41.738,22.505 41.766,22.41 41.777,22.306 41.777,22.296 41.67,22.296 41.67,22.306 
			41.664,22.392 41.643,22.469 41.607,22.538 41.56,22.598 41.504,22.647 41.436,22.686 41.358,22.711 41.277,22.718 41.195,22.711 
			41.117,22.686 41.051,22.647 40.993,22.598 40.947,22.538 40.911,22.469 40.891,22.392 40.883,22.306 40.883,22.296 
			40.777,22.296 40.777,22.296 		"/>
		<polygon fill-rule="evenodd" clip-rule="evenodd" fill="#939598" points="41.1,22.296 41.1,22.502 41.188,22.502 41.188,22.324 
			41.277,22.324 41.383,22.502 41.454,22.502 41.348,22.324 41.373,22.324 41.398,22.318 41.419,22.31 41.436,22.296 41.436,22.296 
			41.1,22.296 41.1,22.296 		"/>
		<polygon fill="#FFFFFF" points="22.883,17.111 22.268,17.111 22.268,15.881 23.123,15.874 		"/>
	</g>
</g>
</svg>
