<?xml version="1.0" encoding="utf-8"?>
<!-- Generator: Adobe Illustrator 17.0.0, SVG Export Plug-In . SVG Version: 6.00 Build 0)  -->
<!DOCTYPE svg PUBLIC "-//W3C//DTD SVG 1.1//EN" "http://www.w3.org/Graphics/SVG/1.1/DTD/svg11.dtd">
<svg version="1.1" id="Слой_1" xmlns="http://www.w3.org/2000/svg" xmlns:xlink="http://www.w3.org/1999/xlink" x="0px" y="0px"
	 width="50px" height="30px" viewBox="0 0 50 30" enable-background="new 0 0 50 30" xml:space="preserve">
<g>
	<g>
		<path fill="#454545" d="M50,27.5c0,1.381-1.119,2.5-2.5,2.5h-45C1.119,30,0,28.881,0,27.5v-25C0,1.119,1.119,0,2.5,0h45
			C48.881,0,50,1.119,50,2.5V27.5z M49,2.5C49,1.672,48.328,1,47.5,1h-45C1.672,1,1,1.672,1,2.5v25C1,28.328,1.672,29,2.5,29h45
			c0.828,0,1.5-0.672,1.5-1.5V2.5z"/>
	</g>
	<g>
		<path fill="#454545" d="M38.38,2.005H11.638v12.466l1.016-2.39h1.325l0.783,1.843v-1.843h1.878l0.633,1.604l0.667-1.604h1.868
			v0.001h2.849v-0.001h2.14l0.186,0.003l0.178,0.008l0.166,0.014l0.156,0.021l0.147,0.027l0.139,0.035l0.132,0.046l0.119,0.056
			l0.076,0.044l0.067,0.046l0.062,0.047l0.044,0.038v-0.384h1.518v0.488l0.023-0.025l0.081-0.074l0.086-0.067l0.091-0.061
			l0.095-0.054l0.1-0.047l0.103-0.039l0.106-0.034l0.11-0.027l0.113-0.021l0.117-0.017l0.121-0.012l0.125-0.006l0.124-0.003h1.403
			h0.071h1.254l0.889,2.095v-2.095h1.526l0.525,0.96v-0.96h1.49v3.849h-1.489l-0.563-0.985v0.985h-0.743h-0.746h-0.96l-0.295-0.69
			h-0.592l-0.296,0.69h-1.502h-0.079l-0.076-0.001l-0.074-0.003l-0.068-0.004l-0.066-0.006l-0.064-0.006l-0.06-0.009l-0.066-0.01
			l-0.173-0.042l-0.172-0.061l-0.164-0.083l-0.149-0.102l-0.137-0.118l-0.018-0.021v0.465h-0.873H26.27h-1.131l-0.114-0.337
			l-0.015-0.058l-0.014-0.059l-0.011-0.062l-0.011-0.063l-0.011-0.071l-0.01-0.075l-0.01-0.076l-0.007-0.054l-0.007-0.044
			l-0.009-0.041l-0.008-0.032l-0.008-0.026l-0.008-0.021l-0.006-0.013l-0.003-0.007l-0.003-0.005l-0.003-0.005l-0.003-0.005
			l-0.004-0.003l-0.006-0.005l-0.01-0.007l-0.013-0.008l-0.01-0.005l-0.018-0.008l-0.029-0.009l-0.039-0.01l-0.046-0.009
			l-0.056-0.007L24.582,14.8l-0.071-0.003l-0.083-0.001h-0.163v1.133h-1.073h-0.536h-2.849h-0.083h-1.533v-0.566l-0.244,0.566
			h-1.385l-0.184-0.453v0.453h-0.764h-0.853h-0.854l-0.294-0.69h-0.592l-0.296,0.69h-1.086v12.816h26.742v-7.806l-0.024,0.024
			l-0.101,0.082l-0.11,0.069l-0.117,0.055l-0.122,0.043l-0.12,0.026l-0.066,0.011l-0.063,0.007l-0.066,0.006l-0.068,0.004
			l-0.071,0.005l-0.075,0.002l-0.081,0.001l-0.085,0.001h-1.883V21.02l-0.033,0.027l-0.11,0.069l-0.117,0.055l-0.122,0.043
			l-0.12,0.026l-0.067,0.011l-0.062,0.007l-0.065,0.006l-0.068,0.004l-0.072,0.005l-0.076,0.002l-0.081,0.001l-0.084,0.001h-1.518
			h-0.366h-2.434h-0.669h-1.008l-0.105-0.351l-0.013-0.054l-0.013-0.058l-0.01-0.061l-0.009-0.064l-0.01-0.071l-0.009-0.074
			l-0.007-0.075l-0.007-0.056l-0.008-0.046l-0.007-0.041l-0.007-0.034l-0.008-0.028l-0.007-0.022l-0.006-0.016l-0.004-0.008
			l-0.002-0.004l-0.003-0.005l-0.004-0.005l-0.002-0.002L28.01,20.2l-0.007-0.005l-0.009-0.005l-0.004-0.003l-0.01-0.005
			l-0.021-0.007l-0.028-0.01l-0.037-0.006l-0.046-0.008l-0.053-0.005l-0.061-0.003l-0.073-0.001h-0.1v1.134h-1.533v-1.488
			l-0.038,0.041l-0.057,0.056l-0.059,0.05l-0.055,0.041l-0.055,0.038l-0.057,0.034l-0.058,0.032l-0.06,0.028l-0.062,0.026
			l-0.063,0.021l-0.063,0.019l-0.064,0.016l-0.065,0.013l-0.069,0.011l-0.069,0.007l-0.071,0.007l-0.075,0.004l-0.077,0.002
			l-0.077,0.001H24.13v1.042h-2.011l-0.581-0.745l-0.567,0.745h-3.88v-3.849h1.924l0,0h2.028l0.505,0.694l0.548-0.694h2.553h0.115
			l0.109,0.004l0.103,0.005l0.097,0.006l0.092,0.01l0.087,0.013l0.082,0.015l0.086,0.021l0.119,0.043l0.112,0.05l0.106,0.063
			l0.101,0.072l0.092,0.081l0.078,0.081v-0.463h1.964l0.169,0.002l0.163,0.008l0.152,0.015l0.145,0.021l0.138,0.028l0.13,0.038
			l0.125,0.048l0.112,0.059l0.072,0.047l0.062,0.047l0.003,0.001V17.43h3.41v0.284l0.08-0.062l0.11-0.067l0.115-0.053l0.119-0.039
			l0.123-0.029l0.124-0.02l0.05-0.005l0.045-0.002l0.048-0.003l0.054-0.002l0.053-0.001l0.057-0.002h0.062h0.065h1.866v0.276
			l0.069-0.054l0.11-0.067l0.116-0.053l0.118-0.039l0.124-0.029l0.123-0.02l0.051-0.005l0.045-0.002l0.049-0.003l0.052-0.002
			l0.054-0.001l0.057-0.002h0.063h0.064h1.64V2.005H38.38z M32.733,19.879l0.151-0.002l-0.11-0.062l-0.098-0.071l-0.06-0.055
			l-0.049-0.05l-0.046-0.054l-0.042-0.055l-0.038-0.056v0.357h0.293v0.048H32.733z M35.804,19.855l0.001,0.023h0.038L35.804,19.855
			L35.804,19.855z M20.268,19.63l0.243-0.296l-0.243-0.302V19.63L20.268,19.63z M29.99,13.48h-0.724l-0.082,0.002L29.12,13.49
			l-0.053,0.01l-0.04,0.013l-0.032,0.013l-0.024,0.014l-0.016,0.013l-0.01,0.011l-0.002,0.002l-0.007,0.012l-0.011,0.026
			l-0.011,0.04L28.9,13.7l-0.009,0.072l-0.006,0.085l-0.003,0.098l0.003,0.135l0.01,0.115l0.015,0.096l0.019,0.074l0.02,0.053
			l0.017,0.034l0.011,0.015l0.008,0.009l0.012,0.006l0.022,0.009l0.033,0.011l0.042,0.009l0.053,0.006l0.062,0.005l0.078,0.002
			h0.255L29.99,13.48L29.99,13.48z"/>
		<path fill="#454545" d="M17.509,14.172h0.694l-0.568,1.318h-0.81l-0.913-2.244v2.244h-0.751v-2.989h1.151l0.921,2.333
			L17.509,14.172L17.509,14.172z M18.601,14.172h0.751v1.318h-0.751V14.172L18.601,14.172z M20.138,14.172h2.315v0.061h-1.609v0.682
			h1.902v0.576h-2.608V14.172L20.138,14.172z M23.08,14.172h2.585c-0.034,0.012-0.069,0.023-0.105,0.034
			c0.137,0.039,0.24,0.082,0.31,0.129s0.133,0.115,0.19,0.206c0.043,0.069,0.073,0.139,0.091,0.205s0.032,0.164,0.045,0.295
			c0.02,0.214,0.048,0.364,0.085,0.449h-0.835c-0.026-0.069-0.052-0.21-0.078-0.424c-0.021-0.175-0.058-0.31-0.112-0.401
			c-0.053-0.093-0.136-0.166-0.245-0.219c-0.135-0.063-0.332-0.093-0.589-0.092h-0.6v1.136h-0.743v-1.318H23.08z M26.703,14.172
			h0.651v1.318h-0.651V14.172L26.703,14.172z M27.737,14.172h0.726c0.026,0.314,0.111,0.528,0.254,0.643
			c0.123,0.096,0.314,0.144,0.573,0.144h0.549l0.334-0.787h0.69l-0.04,0.095h0.874l-0.04-0.095h0.689l0.561,1.318H32.14
			l-0.295-0.691h-1.168L30.38,15.49h-0.147h-0.62h-0.452c-0.204,0-0.359-0.01-0.468-0.029c-0.376-0.072-0.644-0.277-0.803-0.615
			C27.803,14.658,27.752,14.433,27.737,14.172L27.737,14.172z M33.252,14.172h0.623v1.318h-0.623V14.172L33.252,14.172z
			 M34.374,14.172h0.63l0.305,0.557v-0.557h0.623v1.318h-0.806L34.374,14.172L34.374,14.172z M35.933,14.172H35.31v-1.671h0.623
			V14.172L35.933,14.172z M35.004,14.172h-0.63l-0.499-0.874v0.874h-0.623v-1.671h0.837L35.004,14.172L35.004,14.172z
			 M32.347,14.172h-0.689l-0.396-0.952l-0.398,0.952h-0.69l0.71-1.671h0.753L32.347,14.172L32.347,14.172z M28.463,14.172h-0.726
			c-0.003-0.055-0.005-0.11-0.005-0.168c0-0.402,0.081-0.728,0.241-0.981c0.115-0.182,0.27-0.314,0.464-0.396
			c0.193-0.083,0.445-0.125,0.754-0.125h1.04v0.532h-0.965c-0.293,0-0.507,0.076-0.644,0.227c-0.113,0.126-0.169,0.354-0.169,0.684
			C28.454,14.026,28.457,14.101,28.463,14.172L28.463,14.172z M27.354,14.172h-0.651v-1.671h0.651V14.172L27.354,14.172z
			 M25.665,14.172H23.08v-1.671h1.707c0.49,0,0.833,0.053,1.027,0.159c0.132,0.072,0.234,0.166,0.307,0.283
			c0.072,0.119,0.109,0.248,0.109,0.391c0,0.284-0.085,0.503-0.253,0.657C25.894,14.066,25.79,14.124,25.665,14.172L25.665,14.172z
			 M22.454,14.172h-2.315v-1.671h2.55v0.559h-1.843v0.604h1.609v0.508H22.454z M19.352,14.172h-0.751v-0.926l-0.398,0.926h-0.694
			l0.694-1.671h1.149L19.352,14.172L19.352,14.172z M32.819,20.854v-0.532h1.32c0.212,0,0.353-0.021,0.423-0.066
			c0.103-0.063,0.154-0.156,0.154-0.282c0-0.145-0.06-0.251-0.178-0.318c-0.068-0.037-0.177-0.056-0.325-0.056h-0.536
			c-0.328,0-0.563-0.063-0.708-0.184c-0.09-0.078-0.161-0.176-0.212-0.293c-0.05-0.117-0.076-0.243-0.076-0.376
			c0-0.21,0.06-0.402,0.178-0.576c0.116-0.167,0.302-0.265,0.557-0.292c0.086-0.01,0.215-0.015,0.385-0.015h1.435v0.532h-1.295
			c-0.193,0.003-0.323,0.011-0.386,0.027c-0.129,0.033-0.195,0.135-0.195,0.304c0,0.143,0.055,0.239,0.164,0.29
			c0.073,0.033,0.194,0.05,0.364,0.05h0.463c0.237,0,0.415,0.022,0.532,0.064c0.204,0.071,0.346,0.197,0.422,0.377
			c0.063,0.145,0.093,0.299,0.093,0.464c0,0.182-0.04,0.344-0.121,0.489c-0.112,0.204-0.283,0.326-0.51,0.365
			c-0.111,0.02-0.276,0.029-0.497,0.029h-1.451V20.854z M29.707,17.864h2.55v0.56h-1.843v0.604h1.608v0.568h-1.608v0.682h1.901
			v0.577h-2.609v-2.991H29.707z M17.498,17.864h2.364l-0.001-0.001h0.943l0.715,0.984l0.775-0.984h0.687h0.248h1.413
			c0.303,0,0.52,0.019,0.651,0.058c0.218,0.065,0.39,0.202,0.517,0.409c0.094,0.153,0.141,0.323,0.141,0.507
			c0,0.152-0.031,0.296-0.092,0.432c-0.063,0.136-0.148,0.248-0.259,0.335c-0.097,0.077-0.202,0.132-0.315,0.162
			c-0.112,0.029-0.265,0.044-0.458,0.044h-1.139v1.045h-0.459h-0.248h-0.663l-0.799-1.025l-0.781,1.025h-0.632h-0.29h-2.318
			L17.498,17.864L17.498,17.864z M20.048,18.094v0.329h-1.843v0.604h1.608v0.568h-1.608v0.682h1.901l0.176,0.007l0.77-0.941
			L20.048,18.094L20.048,18.094z M35.79,20.854v-0.532h1.319c0.212,0,0.354-0.021,0.424-0.066c0.102-0.063,0.153-0.156,0.153-0.282
			c0-0.145-0.059-0.251-0.178-0.318c-0.067-0.037-0.176-0.056-0.325-0.056h-0.536c-0.327,0-0.563-0.063-0.708-0.184
			c-0.09-0.078-0.161-0.176-0.211-0.293c-0.051-0.117-0.077-0.243-0.077-0.376c0-0.21,0.059-0.402,0.178-0.576
			c0.116-0.167,0.302-0.265,0.557-0.292c0.086-0.01,0.215-0.015,0.386-0.015h1.435v0.532h-1.294
			c-0.194,0.003-0.323,0.011-0.386,0.027c-0.131,0.033-0.196,0.135-0.196,0.304c0,0.143,0.054,0.239,0.164,0.29
			c0.074,0.033,0.195,0.05,0.365,0.05h0.463c0.237,0,0.415,0.022,0.532,0.064c0.206,0.071,0.346,0.197,0.422,0.377
			c0.061,0.145,0.093,0.299,0.093,0.464c0,0.182-0.04,0.344-0.121,0.489c-0.113,0.204-0.283,0.326-0.51,0.365
			c-0.111,0.02-0.276,0.029-0.496,0.029H35.79V20.854z M27.129,19.185h0.937c0.157,0,0.268-0.023,0.334-0.066
			c0.1-0.068,0.15-0.184,0.15-0.347c0-0.184-0.076-0.3-0.226-0.351c-0.052-0.018-0.138-0.027-0.258-0.027h-0.937V19.185
			L27.129,19.185z M27.129,19.716v1.138h-0.668v-2.991h1.532c0.439,0,0.746,0.054,0.921,0.16c0.119,0.071,0.209,0.166,0.274,0.283
			c0.064,0.119,0.099,0.248,0.099,0.39c0,0.285-0.076,0.504-0.228,0.658c-0.094,0.094-0.217,0.164-0.373,0.215
			c0.123,0.038,0.215,0.082,0.278,0.129c0.063,0.047,0.12,0.115,0.17,0.206c0.038,0.07,0.066,0.139,0.082,0.204
			c0.016,0.067,0.029,0.165,0.04,0.295c0.018,0.216,0.044,0.365,0.077,0.451h-0.75c-0.023-0.07-0.046-0.211-0.069-0.426
			c-0.018-0.175-0.052-0.309-0.1-0.401c-0.047-0.093-0.122-0.165-0.22-0.218c-0.121-0.063-0.297-0.093-0.528-0.093H27.129
			L27.129,19.716z M22.981,18.16l-0.984,1.183l0.984,1.208V18.16L22.981,18.16z M23.688,19.277h0.965
			c0.172,0,0.294-0.025,0.364-0.075c0.104-0.074,0.155-0.202,0.155-0.388c0-0.201-0.079-0.331-0.237-0.388
			c-0.056-0.021-0.146-0.031-0.268-0.031h-0.98v0.882H23.688z M13.277,13.22l-0.438,1.047h0.874L13.277,13.22L13.277,13.22z
			 M11.629,15.491l1.271-2.989h0.752l1.271,2.989h-0.767L13.86,14.8h-1.167l-0.297,0.691H11.629L11.629,15.491z M23.823,13.822
			h1.046c0.175,0,0.298-0.02,0.371-0.064c0.111-0.067,0.167-0.184,0.167-0.347c0-0.183-0.083-0.3-0.251-0.351
			c-0.059-0.018-0.154-0.026-0.288-0.026h-1.046v0.788H23.823z"/>
	</g>
</g>
</svg>
