<?xml version="1.0" encoding="utf-8"?>
<!-- Generator: Adobe Illustrator 17.0.0, SVG Export Plug-In . SVG Version: 6.00 Build 0)  -->
<!DOCTYPE svg PUBLIC "-//W3C//DTD SVG 1.1//EN" "http://www.w3.org/Graphics/SVG/1.1/DTD/svg11.dtd">
<svg version="1.1" id="Слой_1" xmlns="http://www.w3.org/2000/svg" xmlns:xlink="http://www.w3.org/1999/xlink" x="0px" y="0px"
	 width="50px" height="30px" viewBox="0 0 50 30" enable-background="new 0 0 50 30" xml:space="preserve">
<g>
	<g>
		<path fill="#454545" d="M50,27.5c0,1.381-1.119,2.5-2.5,2.5h-45C1.119,30,0,28.881,0,27.5v-25C0,1.119,1.119,0,2.5,0h45
			C48.881,0,50,1.119,50,2.5V27.5z M49,2.5C49,1.672,48.328,1,47.5,1h-45C1.672,1,1,1.672,1,2.5v25C1,28.328,1.672,29,2.5,29h45
			c0.828,0,1.5-0.672,1.5-1.5V2.5z"/>
	</g>
	<path fill="#454545" d="M46.864,15.219c0,0-11.74,8.283-33.242,11.993h33.242V15.219z"/>
	<path fill="#454545" d="M26.563,6.867c-1.764,0-3.195,1.378-3.195,3.079c0,1.808,1.369,3.159,3.195,3.159
		c1.781,0,3.186-1.369,3.186-3.124C29.749,8.237,28.353,6.867,26.563,6.867z"/>
	<path fill="#454545" d="M8.426,6.979H6.708v5.991h1.708c0.907,0,1.562-0.215,2.137-0.691c0.683-0.565,1.087-1.419,1.087-2.302
		C11.641,8.209,10.32,6.979,8.426,6.979z M9.791,11.479c-0.369,0.333-0.845,0.477-1.601,0.477H7.876V7.994H8.19
		c0.756,0,1.213,0.135,1.601,0.485c0.404,0.359,0.645,0.915,0.645,1.49C10.436,10.545,10.196,11.121,9.791,11.479z"/>
	<rect x="12.18" y="6.979" fill="#454545" width="1.168" height="5.991"/>
	<path fill="#454545" d="M16.206,9.278c-0.702-0.261-0.908-0.432-0.908-0.754c0-0.378,0.368-0.665,0.871-0.665
		c0.35,0,0.638,0.144,0.944,0.484l0.61-0.799c-0.503-0.44-1.104-0.665-1.761-0.665c-1.059,0-1.868,0.736-1.868,1.715
		c0,0.827,0.377,1.249,1.473,1.646c0.458,0.161,0.691,0.269,0.809,0.342c0.233,0.152,0.351,0.367,0.351,0.618
		c0,0.486-0.387,0.845-0.909,0.845c-0.557,0-1.005-0.278-1.275-0.799l-0.753,0.729c0.538,0.789,1.184,1.141,2.075,1.141
		c1.213,0,2.066-0.81,2.066-1.968C17.93,10.195,17.535,9.763,16.206,9.278z"/>
	<path fill="#454545" d="M18.298,9.977c0,1.764,1.384,3.128,3.163,3.128c0.503,0,0.934-0.099,1.464-0.35V11.38
		c-0.468,0.468-0.881,0.655-1.411,0.655c-1.177,0-2.013-0.854-2.013-2.066c0-1.149,0.862-2.057,1.959-2.057
		c0.556,0,0.979,0.197,1.464,0.674V7.211c-0.512-0.26-0.935-0.367-1.438-0.367C19.717,6.844,18.298,8.237,18.298,9.977z"/>
	<polygon fill="#454545" points="32.393,11.003 30.794,6.979 29.519,6.979 32.061,13.123 32.69,13.123 35.278,6.979 34.011,6.979 	
		"/>
	<polygon fill="#454545" points="35.809,12.97 39.123,12.97 39.123,11.956 36.977,11.956 36.977,10.337 39.041,10.337 39.041,9.324 
		36.977,9.324 36.977,7.994 39.123,7.994 39.123,6.979 35.809,6.979 	"/>
	<path fill="#454545" d="M43.748,8.748c0-1.122-0.771-1.769-2.12-1.769h-1.734v5.991h1.169v-2.408h0.153l1.616,2.408h1.438
		l-1.888-2.523C43.264,10.266,43.748,9.665,43.748,8.748z M41.404,9.737h-0.34V7.921h0.358c0.729,0,1.124,0.307,1.124,0.89
		C42.547,9.413,42.152,9.737,41.404,9.737z"/>
	<path fill="#454545" d="M44.573,7.425c0-0.104-0.07-0.161-0.199-0.161h-0.17v0.527h0.125V7.586l0.148,0.205h0.157l-0.175-0.219
		C44.532,7.553,44.573,7.498,44.573,7.425z M44.352,7.498h-0.023V7.36h0.024c0.063,0,0.094,0.022,0.094,0.067
		C44.447,7.474,44.415,7.498,44.352,7.498z"/>
	<path fill="#454545" d="M44.399,7.065c-0.256,0-0.461,0.205-0.461,0.461s0.207,0.461,0.461,0.461c0.251,0,0.455-0.207,0.455-0.461
		C44.854,7.274,44.65,7.065,44.399,7.065z M44.399,7.905c-0.205,0-0.37-0.169-0.37-0.378c0-0.21,0.164-0.378,0.37-0.378
		c0.199,0,0.363,0.171,0.363,0.378C44.762,7.735,44.598,7.905,44.399,7.905z"/>
	<path fill="#454545" d="M17.181,14.544l1.563,1.638V14.63h0.223v2.094l-1.563-1.634v1.544H17.18L17.181,14.544L17.181,14.544z"/>
	<path fill="#454545" d="M17.16,14.544v2.111h0.265c0,0,0-1.416,0-1.514c0.068,0.071,1.563,1.635,1.563,1.635v-2.168h-0.265
		c0,0,0,1.424,0,1.521c-0.069-0.073-1.563-1.638-1.563-1.638V14.544z M17.202,14.597c0.069,0.071,1.564,1.638,1.564,1.638
		s0-1.544,0-1.585c0.03,0,0.15,0,0.181,0c0,0.041,0,1.925,0,2.023c-0.069-0.073-1.562-1.636-1.562-1.636s0,1.535,0,1.576
		c-0.032,0-0.152,0-0.182,0C17.202,16.574,17.202,14.695,17.202,14.597z"/>
	<path fill="#454545" d="M20.05,14.63h1.039v0.207h-0.816v0.596h0.792v0.207h-0.792v0.787h0.816v0.207H20.05V14.63z"/>
	<path fill="#454545" d="M21.089,14.609h-1.06v2.047h1.082v-0.25c0,0-0.777,0-0.816,0c0-0.038,0-0.706,0-0.745
		c0.039,0,0.792,0,0.792,0v-0.248c0,0-0.752,0-0.792,0c0-0.038,0-0.517,0-0.553c0.039,0,0.816,0,0.816,0v-0.251H21.089z
		 M21.068,14.65c0,0.03,0,0.137,0,0.166c-0.04,0-0.816,0-0.816,0v0.638c0,0,0.752,0,0.792,0c0,0.029,0,0.135,0,0.166
		c-0.039,0-0.792,0-0.792,0v0.828c0,0,0.776,0,0.816,0c0,0.03,0,0.136,0,0.166c-0.04,0-0.958,0-0.998,0c0-0.04,0-1.923,0-1.964
		C20.11,14.65,21.029,14.65,21.068,14.65z"/>
	<path fill="#454545" d="M22.666,16.634h-0.224v-1.797h-0.483V14.63h1.196v0.207h-0.489V16.634z"/>
	<path fill="#454545" d="M23.155,14.609h-1.218v0.251c0,0,0.447,0,0.485,0c0,0.039,0,1.796,0,1.796h0.265c0,0,0-1.757,0-1.796
		c0.039,0,0.489,0,0.489,0v-0.251H23.155z M23.134,14.65c0,0.03,0,0.137,0,0.166c-0.038,0-0.489,0-0.489,0s0,1.757,0,1.798
		c-0.031,0-0.15,0-0.182,0c0-0.041,0-1.798,0-1.798s-0.446,0-0.483,0c0-0.029,0-0.136,0-0.166
		C22.018,14.65,23.095,14.65,23.134,14.65z"/>
	<path fill="#454545" d="M24.648,16.132l0.649-1.606l0.648,1.606l0.526-1.502h0.243l-0.77,2.107l-0.648-1.614l-0.649,1.614
		L23.88,14.63h0.242L24.648,16.132z"/>
	<path fill="#454545" d="M25.279,14.518c0,0-0.59,1.459-0.629,1.555c-0.034-0.097-0.513-1.464-0.513-1.464h-0.286l0.798,2.188
		c0,0,0.613-1.525,0.649-1.617c0.037,0.092,0.649,1.617,0.649,1.617l0.798-2.188h-0.287c0,0-0.479,1.367-0.513,1.464
		c-0.04-0.096-0.647-1.603-0.647-1.603L25.279,14.518z M24.668,16.14c0,0,0.593-1.468,0.629-1.558c0.037,0.09,0.65,1.609,0.65,1.609
		s0.53-1.514,0.54-1.542c0.023,0,0.154,0,0.197,0c-0.019,0.054-0.704,1.933-0.74,2.03c-0.038-0.096-0.647-1.612-0.647-1.612
		s-0.61,1.517-0.648,1.612c-0.035-0.098-0.719-1.977-0.739-2.03c0.042,0,0.174,0,0.197,0c0.01,0.028,0.54,1.542,0.54,1.542
		L24.668,16.14z"/>
	<path fill="#454545" d="M29.602,15.634c0,0.577-0.474,1.035-1.045,1.035c-0.572,0-1.044-0.458-1.044-1.035
		c0-0.573,0.472-1.038,1.044-1.038C29.128,14.596,29.602,15.061,29.602,15.634z M27.735,15.632c0,0.451,0.367,0.829,0.822,0.829
		s0.821-0.378,0.821-0.829c0-0.455-0.361-0.83-0.821-0.83C28.098,14.802,27.735,15.177,27.735,15.632z"/>
	<path fill="#454545" d="M27.491,15.634c0,0.582,0.479,1.056,1.066,1.056c0.587,0,1.066-0.474,1.066-1.056
		c0-0.585-0.478-1.06-1.066-1.06C27.97,14.575,27.491,15.049,27.491,15.634z M27.532,15.634c0-0.561,0.459-1.018,1.025-1.018
		c0.564,0,1.025,0.456,1.025,1.018c0,0.56-0.461,1.014-1.025,1.014C27.992,16.648,27.532,16.194,27.532,15.634z"/>
	<path fill="#454545" d="M27.714,15.612c0,0.458,0.379,0.829,0.843,0.829s0.841-0.371,0.841-0.829c0-0.457-0.377-0.83-0.841-0.83
		S27.714,15.155,27.714,15.612z M27.756,15.612c0-0.436,0.359-0.789,0.801-0.789s0.799,0.354,0.799,0.789
		c0,0.435-0.357,0.789-0.799,0.789C28.115,16.401,27.756,16.046,27.756,15.612z"/>
	<path fill="#454545" d="M30.793,16.634H30.57V14.63h0.29c0.38,0,0.733,0.101,0.733,0.553c0,0.309-0.193,0.526-0.502,0.553
		l0.638,0.898h-0.274l-0.605-0.88h-0.056L30.793,16.634L30.793,16.634z M30.793,15.557h0.069c0.252,0,0.507-0.047,0.507-0.358
		c0-0.329-0.242-0.361-0.51-0.361h-0.067L30.793,15.557L30.793,15.557z"/>
	<path fill="#454545" d="M30.57,14.609h-0.021v2.047h0.265c0,0,0-0.841,0-0.881c0.016,0,0.034,0,0.035,0l0,0
		c0,0.016,0.589,0.871,0.589,0.871l0.29,0.01h0.041c0,0-0.612-0.861-0.643-0.907c0.295-0.041,0.488-0.257,0.488-0.565
		c0-0.387-0.247-0.574-0.754-0.574h-0.29V14.609z M30.86,14.65c0.485,0,0.712,0.17,0.712,0.533c0,0.298-0.19,0.508-0.483,0.532
		l-0.037,0.004c0,0,0.594,0.833,0.637,0.895c-0.059,0-0.233,0-0.234,0h0.001c0-0.016-0.589-0.871-0.589-0.871l-0.073-0.009h-0.021
		c0,0,0,0.84,0,0.88c-0.031,0-0.151,0-0.181,0c0-0.04,0-1.923,0-1.964C30.626,14.65,30.86,14.65,30.86,14.65z"/>
	<path fill="#454545" d="M30.793,14.816h-0.021v0.763h0.09c0.246,0,0.528-0.044,0.528-0.38c0-0.354-0.274-0.383-0.531-0.383H30.793z
		 M30.86,14.86c0.257,0,0.489,0.024,0.489,0.339c0,0.298-0.246,0.337-0.486,0.337c0,0-0.028,0-0.048,0c0-0.038,0-0.639,0-0.676
		C30.834,14.86,30.86,14.86,30.86,14.86z"/>
	<path fill="#454545" d="M33.752,14.63h0.3l-0.94,0.934l0.972,1.07h-0.308l-0.822-0.919l-0.056,0.054v0.865h-0.223V14.63h0.223
		v0.858L33.752,14.63z"/>
	<path fill="#454545" d="M34.052,14.609h-0.308c0,0-0.76,0.763-0.824,0.83c0-0.091,0-0.83,0-0.83h-0.265v2.047h0.265
		c0,0,0-0.879,0-0.883c0.002,0.001,0.019-0.016,0.033-0.028c0.028,0.03,0.808,0.904,0.808,0.904l0.324,0.007h0.048
		c0,0-0.966-1.064-0.993-1.091c0.029-0.029,0.963-0.956,0.963-0.956H34.052z M34.001,14.65c-0.067,0.067-0.919,0.913-0.919,0.913
		s0.896,0.984,0.955,1.051c-0.069,0-0.261,0-0.261,0l0,0c0-0.011-0.807-0.913-0.807-0.913l-0.014-0.017l-0.072,0.071
		c0,0-0.006,0.818-0.006,0.858c-0.032,0-0.151,0-0.181,0c0-0.04,0-1.923,0-1.964c0.03,0,0.149,0,0.181,0c0,0.041,0,0.89,0,0.89
		s0.871-0.877,0.883-0.89C33.774,14.65,33.934,14.65,34.001,14.65z"/>
</g>
</svg>
