<?xml version="1.0" encoding="utf-8"?>
<!-- Generator: Adobe Illustrator 17.0.0, SVG Export Plug-In . SVG Version: 6.00 Build 0)  -->
<!DOCTYPE svg PUBLIC "-//W3C//DTD SVG 1.1//EN" "http://www.w3.org/Graphics/SVG/1.1/DTD/svg11.dtd">
<svg version="1.1" id="Слой_1" xmlns="http://www.w3.org/2000/svg" xmlns:xlink="http://www.w3.org/1999/xlink" x="0px" y="0px"
	 width="50px" height="30px" viewBox="0 0 50 30" enable-background="new 0 0 50 30" xml:space="preserve">
<g id="Кредитки">
	<g>
		<g>
			<g>
				<g>
					<defs>
						<rect id="SVGID_1_" x="6.052" y="10.511" width="40.8" height="10.881"/>
					</defs>
					<clipPath id="SVGID_2_">
						<use xlink:href="#SVGID_1_"  overflow="visible"/>
					</clipPath>
					<path clip-path="url(#SVGID_2_)" fill="#454545" d="M13.279,12.17c-0.129-0.267-0.34-0.481-0.598-0.646
						c-0.274-0.168-0.59-0.285-0.957-0.35c-0.371-0.068-0.797-0.099-1.297-0.104H8.134c-0.238,0.005-0.473,0.189-0.527,0.419
						l-1.543,6.724c-0.055,0.225,0.093,0.418,0.332,0.418h1.097c0.239,0,0.477-0.185,0.528-0.418L8.4,16.58
						c0.05-0.227,0.285-0.412,0.523-0.412H9.24c1.343-0.004,2.382-0.279,3.128-0.829c0.754-0.551,1.122-1.278,1.122-2.176
						C13.49,12.767,13.427,12.435,13.279,12.17L13.279,12.17z M10.911,14.366c-0.332,0.245-0.793,0.366-1.39,0.366H9.255
						c-0.238,0-0.387-0.186-0.336-0.418l0.332-1.428c0.047-0.227,0.285-0.418,0.524-0.418h0.359c0.422,0,0.742,0.069,0.957,0.213
						c0.211,0.137,0.316,0.36,0.316,0.653C11.411,13.779,11.24,14.123,10.911,14.366L10.911,14.366z M26.009,13.49l-4.375,7.402
						c-0.141,0.231-0.453,0.414-0.687,0.414l-1.141,0.004c-0.234,0-0.313-0.188-0.168-0.418l0.973-1.695c0,0,0.078-0.098,0.007-0.65
						c-0.148-1-0.894-5.251-0.894-5.251c-0.055-0.231,0.09-0.422,0.328-0.422h0.984c0.301,0,0.543,0.198,0.598,0.431l0.488,2.949
						l0.184,0.004c0.152-0.275,1.726-2.974,1.726-2.974c0.149-0.227,0.454-0.418,0.692-0.418c0,0,1.055,0.004,1.316,0
						C26.431,12.857,26.009,13.49,26.009,13.49L26.009,13.49z M33.224,12.197c-0.137-0.268-0.34-0.483-0.602-0.651
						c-0.27-0.164-0.586-0.282-0.957-0.349c-0.363-0.065-0.797-0.1-1.293-0.1h-2.297c-0.238,0.002-0.469,0.19-0.524,0.416
						l-1.543,6.727c-0.055,0.229,0.098,0.418,0.332,0.418l1.098-0.004c0.234,0.004,0.476-0.185,0.527-0.414l0.375-1.633
						c0.055-0.225,0.289-0.418,0.527-0.418h0.313c1.344,0,2.387-0.275,3.141-0.824c0.738-0.555,1.113-1.28,1.113-2.18
						C33.431,12.791,33.365,12.459,33.224,12.197L33.224,12.197z M30.857,14.396c-0.332,0.24-0.793,0.36-1.387,0.36h-0.273
						c-0.234,0-0.391-0.192-0.336-0.418l0.332-1.426c0.051-0.227,0.289-0.418,0.527-0.418h0.356c0.422,0,0.738,0.069,0.957,0.211
						c0.211,0.142,0.316,0.362,0.32,0.655C31.353,13.806,31.185,14.15,30.857,14.396L30.857,14.396z M18.575,13.131
						c-0.414-0.235-1.07-0.348-1.961-0.348c-0.445,0-0.886,0.03-1.332,0.102c-0.328,0.049-0.359,0.057-0.562,0.104
						c-0.418,0.09-0.484,0.508-0.484,0.508l-0.133,0.552c-0.074,0.35,0.129,0.338,0.211,0.307c0.183-0.053,0.285-0.108,0.656-0.19
						c0.359-0.082,0.734-0.142,1.031-0.138c0.438,0,0.774,0.043,1,0.142c0.219,0.093,0.328,0.259,0.328,0.496l-0.019,0.155
						l-0.156,0.099c-0.625,0.039-1.075,0.097-1.622,0.177c-0.535,0.073-1.003,0.207-1.39,0.381
						c-0.418,0.186-0.731,0.436-0.945,0.746c-0.211,0.316-0.317,0.701-0.317,1.149c0,0.428,0.152,0.773,0.449,1.043
						c0.297,0.266,0.688,0.395,1.157,0.395c0.296,0,0.527-0.024,0.687-0.063l0.535-0.184l0.449-0.25l0.415-0.273l0.003,0.01
						l-0.039,0.174l-0.004,0.008c-0.042,0.215,0.086,0.391,0.293,0.41l0.004,0.008h1.024l0.011-0.008
						c0.219-0.027,0.426-0.203,0.473-0.41l0.801-3.469l0.043-0.281l0.019-0.264C19.204,13.728,18.99,13.366,18.575,13.131
						L18.575,13.131z M16.806,17.029l-0.172,0.229l-0.434,0.22c-0.203,0.082-0.394,0.125-0.574,0.125
						c-0.269,0-0.48-0.039-0.625-0.121l-0.211-0.41c0-0.223,0.051-0.396,0.16-0.535l0.465-0.314
						c0.199-0.068,0.446-0.125,0.727-0.166c0.25-0.031,0.746-0.088,0.812-0.088l0.075,0.131
						C17.013,16.175,16.872,16.763,16.806,17.029L16.806,17.029z M44.232,10.697h0.367v0.152h-0.367v0.623l0.027,0.084l0.059,0.059
						l0.109,0.017l0.094-0.012l0.07-0.022h0.008v0.164L44.49,11.78l-0.105,0.009l-0.25-0.091l-0.086-0.28v-0.567h-0.121v-0.152
						h0.121v-0.305h0.184L44.232,10.697L44.232,10.697z M38.525,13.136c-0.418-0.232-1.07-0.349-1.961-0.349
						c-0.441,0-0.887,0.03-1.328,0.104c-0.332,0.047-0.363,0.06-0.566,0.102c-0.418,0.09-0.48,0.508-0.48,0.508l-0.137,0.552
						c-0.074,0.35,0.125,0.334,0.219,0.307c0.18-0.055,0.281-0.104,0.648-0.191c0.355-0.082,0.734-0.142,1.035-0.142
						c0.434,0,0.77,0.052,0.996,0.146c0.223,0.092,0.332,0.26,0.332,0.495l-0.02,0.156l-0.156,0.099
						c-0.629,0.038-1.082,0.096-1.621,0.174c-0.531,0.076-1.004,0.205-1.395,0.383c-0.418,0.186-0.73,0.436-0.945,0.746
						c-0.211,0.318-0.316,0.701-0.316,1.145c0,0.428,0.152,0.777,0.449,1.049c0.301,0.26,0.688,0.393,1.156,0.393
						c0.297,0,0.527-0.018,0.691-0.061l0.531-0.182l0.453-0.25l0.41-0.275l0.008,0.008l-0.039,0.174l-0.004,0.004l0.004,0.004
						c-0.051,0.215,0.078,0.392,0.293,0.41v0.004h1.019l0.016-0.004c0.215-0.027,0.422-0.203,0.469-0.414l0.801-3.461l0.043-0.285
						l0.023-0.264C39.154,13.732,38.943,13.37,38.525,13.136L38.525,13.136z M36.759,17.033l-0.18,0.23l-0.426,0.223
						c-0.203,0.078-0.398,0.121-0.574,0.121c-0.277,0-0.484-0.039-0.625-0.117l-0.215-0.41c0-0.227,0.055-0.4,0.16-0.539
						c0.105-0.129,0.266-0.236,0.469-0.316c0.195-0.064,0.441-0.121,0.723-0.16c0.25-0.035,0.746-0.09,0.809-0.092l0.078,0.135
						C36.966,16.181,36.826,16.767,36.759,17.033L36.759,17.033z M42.646,11.568l-1.469,6.664l-0.055,0.082
						c-0.086,0.184-0.27,0.336-0.473,0.336h-1.02l-0.02-0.022c-0.195-0.029-0.32-0.185-0.273-0.392l-0.004-0.004l0.043-0.191
						l1.379-6.249l0.047-0.22l0.055-0.086c0.09-0.182,0.273-0.332,0.473-0.332h0.984C42.552,11.15,42.693,11.338,42.646,11.568
						L42.646,11.568z M46.294,10.775l0.082,0.297v0.695h-0.18v-0.608l-0.012-0.134l-0.02-0.1l-0.066-0.064l-0.117-0.023
						l-0.152,0.039l-0.148,0.097v0.051l0.004,0.06v0.683h-0.18v-0.613l-0.008-0.129L45.47,10.92l-0.059-0.059l-0.121-0.023
						l-0.148,0.035l-0.148,0.095v0.795h-0.18v-1.066h0.18v0.117l0.168-0.108l0.18-0.039l0.184,0.047l0.113,0.125l0.199-0.133
						l0.191-0.039L46.294,10.775z"/>
				</g>
			</g>
		</g>
		<g>
			<path fill="#454545" d="M50,27.5c0,1.381-1.119,2.5-2.5,2.5h-45C1.119,30,0,28.881,0,27.5v-25C0,1.119,1.119,0,2.5,0h45
				C48.881,0,50,1.119,50,2.5V27.5z M49,2.5C49,1.672,48.328,1,47.5,1h-45C1.672,1,1,1.672,1,2.5v25C1,28.328,1.672,29,2.5,29h45
				c0.828,0,1.5-0.672,1.5-1.5V2.5z"/>
		</g>
	</g>
</g>
</svg>
