<?xml version="1.0" encoding="utf-8"?>
<!-- Generator: Adobe Illustrator 17.0.0, SVG Export Plug-In . SVG Version: 6.00 Build 0)  -->
<!DOCTYPE svg PUBLIC "-//W3C//DTD SVG 1.1//EN" "http://www.w3.org/Graphics/SVG/1.1/DTD/svg11.dtd">
<svg version="1.1" id="Capa_1" xmlns="http://www.w3.org/2000/svg" xmlns:xlink="http://www.w3.org/1999/xlink" x="0px" y="0px"
	 width="506.486px" height="300px" viewBox="2.752 88.779 506.486 300" enable-background="new 2.752 88.779 506.486 300"
	 xml:space="preserve">
<g>
	<g id="Layer_1_copy_6_">
		<path d="M416.807,292.2c-0.524-0.287-1.056-0.434-1.602-0.434c-0.559,0-1.091,0.147-1.609,0.434
			c-0.518,0.287-0.944,0.686-1.231,1.217c-0.3,0.518-0.434,1.063-0.434,1.622s0.147,1.112,0.434,1.622
			c0.301,0.518,0.706,0.937,1.217,1.224c0.518,0.287,1.063,0.434,1.637,0.434c0.559,0,1.105-0.147,1.616-0.434
			c0.511-0.287,0.923-0.706,1.21-1.224c0.294-0.511,0.434-1.056,0.434-1.622s-0.147-1.105-0.434-1.622
			C417.744,292.871,417.331,292.486,416.807,292.2z M416.03,296.871l-0.308-0.559c-0.245-0.434-0.448-0.72-0.602-0.832
			c-0.098-0.07-0.252-0.126-0.448-0.126h-0.328v1.504h-0.574l0,0v-3.531h1.217c0.42,0,0.72,0.035,0.888,0.105
			c0.189,0.07,0.35,0.168,0.448,0.343c0.112,0.161,0.161,0.336,0.161,0.518c0,0.259-0.098,0.476-0.273,0.678
			c-0.182,0.182-0.434,0.301-0.734,0.322c0.126,0.042,0.224,0.112,0.3,0.189c0.147,0.14,0.315,0.371,0.524,0.692l0.434,0.692h-0.706
			L416.03,296.871L416.03,296.871z M415.695,294.724c-0.126,0.119-0.343,0.147-0.671,0.147h-0.699v-1.049h0.658
			c0.273,0,0.448,0.021,0.559,0.063c0.112,0.042,0.175,0.119,0.245,0.168c0.056,0.098,0.084,0.175,0.084,0.287
			C415.87,294.508,415.814,294.619,415.695,294.724z M412.471,259.112c-0.434,0.224-0.776,0.574-1.021,1.014
			c-0.245,0.44-0.371,0.909-0.371,1.363c0,0.468,0.126,0.93,0.356,1.357c0.259,0.434,0.587,0.762,1.021,1.021
			c0.434,0.238,0.881,0.378,1.35,0.378c0.468,0,0.93-0.14,1.35-0.378c0.434-0.245,0.77-0.58,1.021-1.021
			c0.245-0.434,0.356-0.888,0.356-1.357c0-0.455-0.126-0.923-0.371-1.363c-0.245-0.434-0.587-0.77-1.021-1.014
			s-0.874-0.364-1.336-0.364C413.359,258.748,412.905,258.875,412.471,259.112z M414.939,260.21
			c0.119,0.154,0.161,0.328,0.161,0.518c0,0.259-0.098,0.475-0.28,0.671c-0.182,0.203-0.434,0.287-0.727,0.322
			c0.14,0.056,0.231,0.119,0.301,0.182c0.147,0.147,0.315,0.356,0.518,0.692l0.434,0.699h-0.699l-0.315-0.546
			c-0.245-0.44-0.44-0.72-0.587-0.826c-0.119-0.091-0.259-0.133-0.462-0.133h-0.322v1.497h-0.587v-3.525h1.224
			c0.412,0,0.72,0.035,0.895,0.112C414.667,259.937,414.821,260.057,414.939,260.21z M413.597,260.238
			c0.28,0,0.455,0.035,0.574,0.07c0.105,0.049,0.182,0.105,0.238,0.175c0.063,0.098,0.091,0.168,0.091,0.287
			c0,0.154-0.063,0.287-0.168,0.392c-0.133,0.105-0.35,0.147-0.678,0.147h-0.692v-1.063h0.636L413.597,260.238L413.597,260.238z
			 M338.695,245.748c1.84,0.007,2.035,0.189,2.35,0.252c0.203,1.812-1.14,10.33-7.637,10.33c-3.357,0-4.224-2.545-4.224-4.07
			C329.183,249.3,330.785,245.748,338.695,245.748z M163.727,245.748c1.846,0.007,2.042,0.189,2.35,0.252
			c0.21,1.812-1.14,10.33-7.637,10.33c-3.35,0-4.224-2.545-4.224-4.07C154.215,249.3,155.816,245.748,163.727,245.748z
			 M323.966,137.373c-26.164,0.007-50.011,9.924-67.993,26.212c-17.987-16.267-41.822-26.192-67.965-26.192c-0.217,0-0.44,0-0.651,0
			c-55.656,0.364-100.723,45.641-100.723,101.381c0,55.956,45.417,101.373,101.373,101.373c26.136,0,49.97-9.91,67.957-26.192
			c-3.755-3.392-7.155-7.148-10.364-11.078h20.932c-3.154,3.867-6.595,7.491-10.295,10.861h-0.021h0.007
			c-0.084,0.091-0.175,0.147-0.259,0.224c17.995,16.296,41.857,26.226,68.041,26.22c55.992-0.021,101.359-45.424,101.346-101.409
			c0-0.021,0-0.035,0-0.049C425.353,182.741,379.957,137.359,323.966,137.373z M246.755,174.055h19.268
			c2.839,3.441,5.476,7.064,7.868,10.854h-34.374C241.734,181.279,244.168,177.559,246.755,174.055z M233.531,195.56h46.207
			c1.644,3.511,3.098,7.141,4.371,10.861h-56.055C228.614,205.372,230.572,201.149,233.531,195.56z M128.017,264.595l6.147-38.759
			l-13.869,38.759h-7.435l-0.965-38.759l-6.567,38.759H94.916l8.63-51.404h15.75l0.552,31.541l10.638-31.541h17.085l-8.511,51.404
			H128.017z M164.838,264.539l0.356-4.133c-0.168,0.021-3.455,4.959-11.071,4.959c-3.986,0-10.42-2.175-10.42-11.63
			c0-12.022,9.805-16.009,19.141-16.009c1.469,0,4.637,0.266,4.637,0.266s0.356-0.734,0.356-2.72c0-3.266-2.938-3.714-6.959-3.714
			c-7.085,0-11.764,1.896-11.764,1.896l1.566-9.301c0,0,5.679-2.378,13.071-2.378c3.826,0,14.827,0.406,14.827,13.015l-4.238,29.723
			h-9.504V264.539L164.838,264.539z M205.01,251.426c0,14.344-13.897,13.729-16.324,13.729c-9.057,0-11.854-1.251-12.113-1.322
			l1.441-9.441c0.014-0.084,4.546,1.644,9.588,1.644c2.91,0,6.686-0.287,6.686-3.762c0-5.203-13.511-3.958-13.511-16.316
			c0-10.903,8.099-14.092,16.085-14.092c6.169,0,9.959,0.846,9.959,0.846l-1.363,9.525c0,0-5.854-0.483-7.371-0.483
			c-3.839,0-5.931,0.839-5.931,3.525C192.149,240.67,205.01,238.02,205.01,251.426z M221.697,255.182
			c0.958,0,2.042-0.328,2.783-0.328l-1.35,9.169c-1.084,0.3-4.154,1.392-8.092,1.419c-5.028,0.042-8.602-2.769-8.602-9.148
			c0-4.28,6.134-39.55,6.371-39.78h10.791l-1.098,6.309h5.385l-1.378,10.162h-5.714l-3.035,18.722
			C217.529,253.189,217.942,255.182,221.697,255.182z M245.433,221.626c11.848,0,15.393,8.672,15.393,15.785
			c0,2.847-1.427,9.84-1.427,9.84h-21.932c0,0-2.028,8.637,9.56,8.637c5.434,0,11.462-2.657,11.462-2.657l-1.902,10.407
			c0,0-3.483,1.777-11.4,1.777c-8.581,0-18.645-3.63-18.645-18.876C226.551,233.326,234.579,221.633,245.433,221.626z
			 M274.024,292.431h-35.969c-2.189-3.497-4.232-7.085-5.987-10.854h47.858C278.171,285.324,276.199,288.947,274.024,292.431z
			 M271.611,264.672h-11.078l6.735-41.836h10.05l-0.965,6.063c0,0,3.581-6.595,8.414-6.595c1.406,0,2.084,0.14,2.084,0.14
			c-1.434,2.923-2.7,5.602-4.014,12.519C275.339,232.299,274.765,246.796,271.611,264.672z M313.818,264.022
			c0,0-5.805,1.482-9.441,1.482c-12.882,0-19.421-8.889-19.421-22.352c0-20.303,12.12-31.114,24.576-31.114
			c5.63,0,12.155,2.644,12.155,2.644l-1.762,11.434c0,0-4.413-3.084-9.903-3.084c-7.343,0-13.932,7.008-13.932,19.743
			c0,6.273,3.07,12.12,10.735,12.12c3.643,0,8.924-2.651,8.924-2.651L313.818,264.022z M339.799,264.539l0.364-4.133
			c-0.175,0.021-3.462,4.959-11.071,4.959c-3.986,0-10.42-2.175-10.42-11.63c0-12.022,9.805-16.009,19.135-16.009
			c1.469,0,4.644,0.266,4.644,0.266s0.364-0.727,0.364-2.714c0-3.266-2.938-3.714-6.965-3.714c-7.085,0-11.756,1.896-11.756,1.896
			l1.566-9.301c0,0,5.679-2.378,13.078-2.378c3.818,0,14.827,0.406,14.82,13.015l-4.238,29.723
			C349.311,264.539,339.799,264.539,339.799,264.539z M362.228,264.672H351.15l6.735-41.836h10.057l-0.965,6.063
			c0,0,3.587-6.595,8.421-6.595c1.406,0,2.077,0.14,2.077,0.14c-1.427,2.923-2.707,5.602-4.014,12.519
			C365.956,232.299,365.383,246.796,362.228,264.672z M416.653,259.854c0.3,0.524,0.434,1.07,0.434,1.637s-0.14,1.098-0.434,1.622
			c-0.287,0.518-0.692,0.916-1.21,1.224c-0.511,0.287-1.056,0.434-1.629,0.434c-0.559,0-1.098-0.147-1.616-0.434
			c-0.518-0.308-0.923-0.706-1.21-1.224c-0.294-0.524-0.434-1.056-0.434-1.622c0-0.574,0.147-1.119,0.434-1.637
			c0.287-0.518,0.714-0.937,1.224-1.217c0.531-0.287,1.056-0.434,1.602-0.434c0.559,0,1.091,0.147,1.609,0.434
			C415.953,258.923,416.359,259.322,416.653,259.854z M400.903,227.697l2.336-14.442l10.819-0.021l-8.253,51.32h-10.497l0.468-3.854
			c0,0-3.581,4.518-10.057,4.518c-8.973,0-13.372-8.665-13.372-17.519c0-13.694,8.239-25.631,18.127-25.631
			C396.84,222.08,400.903,227.697,400.903,227.697z M250.441,238.691h-11.98c0-0.706,1.133-7.399,7.015-7.399
			C251.567,231.292,250.441,238.145,250.441,238.691z M392.343,232.466c3.882,0,5.875,2.664,5.875,8.945
			c0,5.686-2.819,13.316-8.665,13.316c-3.889,0-5.707-3.273-5.707-8.378C383.838,237.977,387.594,232.466,392.343,232.466z"/>
	</g>
</g>
</svg>
