<?xml version="1.0" encoding="utf-8"?>
<!-- Generator: Adobe Illustrator 17.0.0, SVG Export Plug-In . SVG Version: 6.00 Build 0)  -->
<!DOCTYPE svg PUBLIC "-//W3C//DTD SVG 1.1//EN" "http://www.w3.org/Graphics/SVG/1.1/DTD/svg11.dtd">
<svg version="1.1" id="Capa_1" xmlns="http://www.w3.org/2000/svg" xmlns:xlink="http://www.w3.org/1999/xlink" x="0px" y="0px"
	 width="506.486px" height="300px" viewBox="2.752 88.779 506.486 300" enable-background="new 2.752 88.779 506.486 300"
	 xml:space="preserve">
<g id="g38">
	<g>
		<g id="Layer_1_copy_5_">
			<path d="M93.534,192.557c-1.658-3.326-4.281-6.069-7.536-8.129c-3.396-2.08-7.405-3.537-11.987-4.401
				c-4.663-0.844-10.049-1.226-16.288-1.286l-28.808,0.02c-2.994,0.04-5.928,2.371-6.632,5.265L2.899,268.451
				c-0.703,2.854,1.176,5.245,4.17,5.245h13.796c2.994,0,5.959-2.321,6.622-5.245l4.733-20.498c0.633-2.854,3.587-5.235,6.611-5.235
				h3.949c16.871-0.02,29.933-3.466,39.318-10.37c9.436-6.913,14.088-16.047,14.088-27.361
				C96.177,200.032,95.363,195.873,93.534,192.557z M63.782,220.139c-4.17,3.054-9.968,4.582-17.444,4.582h-3.376
				c-3.005,0-4.843-2.371-4.19-5.265l4.15-17.926c0.583-2.874,3.608-5.255,6.571-5.235l4.522-0.03c5.276,0,9.304,0.915,11.998,2.683
				c2.663,1.749,3.999,4.532,3.979,8.22C70.071,212.774,67.931,217.085,63.782,220.139z M253.431,209.116l-54.964,92.956
				c-1.768,2.904-5.677,5.245-8.651,5.245l-14.288,0.02c-2.965,0-3.939-2.362-2.13-5.255l12.218-21.282c0,0,0.985-1.236,0.11-8.169
				c-1.88-12.57-11.265-65.976-11.265-65.976c-0.673-2.894,1.155-5.265,4.13-5.265l12.359-0.02c3.788,0,6.832,2.492,7.516,5.406
				l6.15,37.048l2.291,0.03c1.919-3.406,21.674-37.309,21.674-37.309c1.889-2.863,5.707-5.265,8.682-5.265c0,0,13.273,0.04,16.539,0
				C258.716,201.168,253.431,209.116,253.431,209.116z M344.056,192.869c-1.728-3.346-4.321-6.049-7.596-8.159
				c-3.356-2.09-7.335-3.557-11.987-4.401c-4.572-0.813-10.028-1.256-16.228-1.266l-28.849,0.02
				c-3.005,0.051-5.888,2.381-6.581,5.245l-19.403,84.465c-0.703,2.863,1.226,5.235,4.16,5.235l13.816-0.02
				c2.934,0.02,5.938-2.331,6.632-5.225l4.673-20.508c0.683-2.854,3.648-5.255,6.632-5.235h3.949
				c16.891,0,29.984-3.477,39.409-10.359c9.315-6.963,14.027-16.077,14.027-27.401C346.658,200.324,345.804,196.154,344.056,192.869
				z M314.303,220.491c-4.16,2.994-9.968,4.522-17.403,4.522h-3.436c-2.964,0.03-4.883-2.381-4.22-5.255l4.18-17.896
				c0.613-2.863,3.608-5.265,6.592-5.235l4.472-0.03c5.306,0.03,9.285,0.904,11.998,2.673c2.703,1.768,3.979,4.542,4.009,8.22
				C320.523,213.095,318.443,217.416,314.303,220.491z M160.053,204.625c-5.205-2.934-13.424-4.401-24.659-4.401
				c-5.556,0-11.093,0.432-16.69,1.296c-4.13,0.633-4.532,0.754-7.074,1.306c-5.245,1.146-6.069,6.38-6.069,6.38l-1.688,6.944
				c-0.955,4.431,1.598,4.26,2.663,3.888c2.291-0.683,3.567-1.386,8.25-2.432c4.472-1.015,9.184-1.779,12.922-1.728
				c5.516,0,9.737,0.583,12.55,1.768c2.774,1.206,4.16,3.275,4.16,6.27l-0.241,1.949l-1.989,1.226
				c-7.827,0.492-13.485,1.216-20.347,2.211c-6.712,0.934-12.6,2.572-17.494,4.813c-5.255,2.311-9.154,5.416-11.877,9.365
				c-2.632,3.969-3.949,8.782-3.949,14.429c0,5.316,1.91,9.707,5.617,13.103c3.728,3.336,8.651,4.964,14.54,4.964
				c3.728-0.02,6.611-0.312,8.661-0.804l6.682-2.301l5.658-3.135l5.205-3.436l0.07,0.1l-0.522,2.211l-0.03,0.091v0.02
				c-0.563,2.693,1.065,4.903,3.688,5.165l0.051,0.06h0.241h10.58h1.989l0.181-0.08c2.753-0.321,5.336-2.532,5.938-5.165
				l10.058-43.539l0.522-3.547l0.241-3.326C167.931,212.121,165.268,207.549,160.053,204.625z M137.807,253.58l-2.15,2.833
				l-5.426,2.804c-2.553,1.035-4.974,1.558-7.214,1.558c-3.396,0-6.059-0.492-7.857-1.497l-2.663-5.175
				c0-2.803,0.643-5.024,2.02-6.732l5.848-3.979c2.502-0.844,5.556-1.558,9.094-2.05c3.155-0.392,9.385-1.105,10.199-1.125
				l0.955,1.678C140.429,242.848,138.66,250.244,137.807,253.58z M482.279,174.048h4.612v1.899h-4.612v6.14l0.02,1.658l0.331,1.105
				l0.724,0.703l1.417,0.221l1.155-0.161l0.864-0.261h0.121v2.02l-1.397,0.271l-1.316,0.11l-3.135-1.125l-1.065-3.537v-7.144h-1.547
				v-1.899h1.547v-3.828h2.281L482.279,174.048L482.279,174.048z M410.625,204.685c-5.235-2.934-13.445-4.411-24.648-4.411
				c-5.557,0-11.104,0.432-16.68,1.326c-4.14,0.603-4.552,0.734-7.104,1.276c-5.235,1.135-6.049,6.391-6.049,6.391l-1.688,6.933
				c-0.945,4.431,1.547,4.23,2.713,3.888c2.301-0.683,3.537-1.356,8.179-2.441c4.451-1.004,9.204-1.749,12.952-1.728
				c5.497,0,9.716,0.593,12.52,1.779c2.793,1.206,4.16,3.296,4.16,6.26l-0.211,1.94l-1.969,1.256
				c-7.908,0.473-13.575,1.195-20.368,2.19c-6.692,0.934-12.6,2.562-17.504,4.813c-5.235,2.321-9.184,5.426-11.877,9.385
				c-2.663,3.969-3.959,8.772-3.959,14.369c0,5.355,1.889,9.746,5.647,13.123c3.748,3.326,8.621,4.994,14.51,4.994
				c3.708-0.04,6.592-0.282,8.651-0.813l6.662-2.271l5.707-3.135l5.165-3.477l0.091,0.11l-0.473,2.231l-0.051,0.04l0.02,0.04
				c-0.623,2.693,1.015,4.924,3.668,5.165l0.02,0.051h0.241l0,0c1.738,0,7.747,0,10.611,0h1.95l0.211-0.07
				c2.723-0.331,5.295-2.542,5.868-5.205l10.088-43.478l0.533-3.567l0.291-3.336C418.513,212.161,415.88,207.609,410.625,204.685z
				 M388.428,253.64l-2.241,2.863l-5.376,2.783c-2.553,1.025-4.984,1.558-7.184,1.558c-3.507,0-6.099-0.503-7.848-1.507
				l-2.693-5.155c0-2.814,0.653-5.014,1.969-6.753c1.337-1.638,3.376-2.984,5.908-3.969c2.472-0.844,5.527-1.528,9.084-2.04
				c3.135-0.392,9.345-1.125,10.149-1.135l0.974,1.678C391.031,242.918,389.253,250.284,388.428,253.64z M462.353,184.98l0.04,0.01
				l-18.469,83.711l-0.663,1.004c-1.076,2.351-3.436,4.26-5.949,4.26H424.48l-0.211-0.291c-2.452-0.372-4.039-2.321-3.466-4.903
				l-0.02-0.06l0.563-2.411l17.273-78.517l0.623-2.733l0.683-1.065c1.115-2.311,3.396-4.19,5.928-4.19h12.359
				C461.177,179.755,462.986,182.096,462.353,184.98z M508.183,175.023l1.055,3.748v8.712h-2.251v-7.666l-0.151-1.638l-0.282-1.296
				l-0.804-0.774l-1.477-0.271l-1.889,0.473l-1.91,1.216l0.04,0.653l0.04,0.713v8.581h-2.241v-7.666l-0.111-1.658l-0.331-1.286
				l-0.754-0.774l-1.528-0.271l-1.869,0.462l-1.879,1.165v10.018h-2.231v-13.416h2.241v1.487l2.12-1.367l2.241-0.492l2.331,0.552
				l1.437,1.598l2.472-1.668l2.432-0.492L508.183,175.023z"/>
		</g>
	</g>
</g>
</svg>
