<?xml version="1.0" encoding="utf-8"?>
<!-- Generator: Adobe Illustrator 17.0.0, SVG Export Plug-In . SVG Version: 6.00 Build 0)  -->
<!DOCTYPE svg PUBLIC "-//W3C//DTD SVG 1.1//EN" "http://www.w3.org/Graphics/SVG/1.1/DTD/svg11.dtd">
<svg version="1.1" id="Capa_1" xmlns="http://www.w3.org/2000/svg" xmlns:xlink="http://www.w3.org/1999/xlink" x="0px" y="0px"
	 width="506.486px" height="300px" viewBox="2.752 88.779 506.486 300" enable-background="new 2.752 88.779 506.486 300"
	 xml:space="preserve">
<g>
	<g id="Layer_1_copy_24_">
		<path d="M438.425,176.398h-26.384c-8.195,0-14.29,2.231-17.891,10.399l-50.704,114.828h35.861c0,0,5.85-15.44,7.176-18.822
			c3.926,0,38.768,0.053,43.731,0.053c1.019,4.374,4.163,18.769,4.163,18.769h31.68L438.425,176.398z M396.311,257.166
			c2.81-7.193,13.605-35.018,13.605-35.018c-0.185,0.342,2.784-7.246,4.55-11.962l2.301,10.803c0,0,6.543,29.915,7.913,36.177
			H396.311z M345.835,260.627c-0.246,26.024-23.574,42.816-59.47,42.816c-15.309-0.158-30.055-3.171-38.047-6.675l4.804-28.044
			l4.401,2.002c11.216,4.672,18.48,6.561,32.154,6.561c9.811,0,20.315-3.847,20.42-12.234c0.062-5.49-4.401-9.398-17.707-15.546
			c-12.964-5.999-30.126-16.047-29.906-34.042c0.185-24.355,23.968-41.35,57.713-41.35c13.227,0,23.828,2.723,30.591,5.261
			l-4.62,27.157l-3.083-1.449c-6.289-2.53-14.387-4.971-25.559-4.795c-13.368,0-19.569,5.568-19.569,10.776
			c-0.071,5.867,7.237,9.732,19.182,15.546C336.876,235.525,345.984,246.39,345.835,260.627z M45.933,177.698l0.439-2.512h52.944
			c7.14,0.272,12.893,2.547,14.878,10.18l11.515,55.368C114.396,211.777,87.133,187.684,45.933,177.698z M200.345,176.381
			l-53.778,125.061l-36.133,0.062L79.852,197.012c21.983,14.07,40.709,36.396,47.305,51.943l3.566,12.902l33.446-85.449
			L200.345,176.381L200.345,176.381z M214.152,176.275h34.165l-21.369,125.298H192.8L214.152,176.275z"/>
	</g>
</g>
</svg>
